<?xml version="1.0" encoding="utf-8"?>
<!-- Generator: Adobe Illustrator 24.0.2, SVG Export Plug-In . SVG Version: 6.00 Build 0)  -->
<svg version="1.1" id="Layer_1" xmlns="http://www.w3.org/2000/svg" xmlns:xlink="http://www.w3.org/1999/xlink" x="0px" y="0px"
	 viewBox="0 0 1330.4 204" style="enable-background:new 0 0 1330.4 204;" xml:space="preserve">
<style type="text/css">
	.st0{fill:#FF90E8;}
	.st1{fill:none;stroke:#000000;stroke-width:3;stroke-miterlimit:10;}
</style>
<path d="M793.5,161.9c-8.7,0-16.5,0-24.3,0c-3.8,0-3-2.8-3-5c-0.1-20.3,0-40.7-0.2-61c-0.1-5.1-0.6-10.3-1.6-15.4
	C761,63,746.6,62.7,736.1,67.6c-6.9,3.2-10.9,9.2-13.9,15.8c-5,11.1-7.5,22.8-7.6,34.9c-0.1,13-0.1,26,0.1,39c0,3.5-1,4.7-4.6,4.6
	c-6.3-0.2-12.7-0.1-19,0c-2.6,0-3.9-0.6-3.9-3.6c0.1-38,0.1-76,0.1-114.1c0-0.3,0.2-0.6,0.6-1.8c8,0,16.2-0.1,24.4,0.2
	c0.7,0,1.8,2.8,1.9,4.4c0.2,8.5,0.1,17,0.1,25.5c0,1.6,0,3.2,0,4.8c0.4,0.1,0.8,0.2,1.2,0.3c0.6-1.6,1.1-3.2,1.7-4.7
	c4.5-11.9,11-22.2,22.6-28.2c20.5-10.7,42.9-1.2,50,21.1c1.5,4.7,2.2,9.6,3.4,15.3c1-2.5,1.5-4.4,2.5-6c4-7,7.4-14.7,12.4-20.9
	c10.6-12.9,24.7-16.7,40.5-11.8c14.7,4.6,20,16.7,22.3,30.5c1,6,1.4,12.3,1.4,18.4c0.2,21.8,0,43.7,0.2,65.5c0,4-1.3,5.2-5.1,5
	c-5.7-0.3-11.3-0.3-17,0c-4.3,0.3-5.3-1.6-5.3-5.5c0.1-20.2,0-40.4-0.2-60.5c0-4.6-0.5-9.3-1.3-13.9c-3.2-17.3-19.5-22.9-33-11.5
	c-8.6,7.3-12.3,17.4-14.4,27.9c-1.6,8.1-2.4,16.5-2.6,24.8C793.2,135.9,793.5,148.5,793.5,161.9z"/>
<path d="M539.8,101.6c0,8.7,0,16.5,0,24.3c0,10.5-0.1,21,0.1,31.5c0.1,3.4-1,4.7-4.6,4.6c-6-0.2-12-0.3-18,0c-4.1,0.2-5.1-1.5-5-5.3
	c0.2-8.8,0.1-17.6-0.7-26.6c-0.5,1.3-1.1,2.5-1.5,3.8c-8.7,27.3-32,35-55.5,29c-21.3-5.4-32.9-20.5-37.6-41.2
	c-4.4-19.8-2.7-38.8,9.1-56.1c9.9-14.6,24.3-21.9,41.5-24c18.3-2.2,35.7,0,50.7,11.7c10.3,8.1,16.2,18.7,17.8,32.6
	c-9.9,0-19.5,0.1-29.1-0.1c-0.8,0-1.9-1.7-2.2-2.7c-3-10.7-9.7-17.5-20.6-19.4c-12.1-2.1-22.8,1.1-31,10.8
	c-12.9,15.3-11.9,43,1.5,57.9c12.4,13.7,39.7,14.9,49-8.1c1.3-3.2,2.4-6.5,3.9-10.8c-3.9,0-7.2,0-10.4,0c-4.2,0-8.3,0-12.5,0
	c-6.9,0-9.3-3.2-7-9.7c0.3-0.9,1.9-2,2.9-2C500.1,101.5,519.6,101.6,539.8,101.6z"/>
<path d="M1171.2,70.3c0-9.1,0-18.1,0-27.8c8.4,0,16.4-0.1,24.3,0.2c0.9,0,2.4,2.8,2.4,4.4c0.2,11.7,0.1,23.3,0.1,35
	c0,24.7-0.1,49.4,0.1,74.1c0,4.6-1.2,6.2-5.9,5.9c-6.8-0.4-13.6-0.1-20.9-0.1c0-10.3,0-20,0-29.8c-0.3-0.1-0.7-0.2-1-0.3
	c-0.6,1.2-1.3,2.4-1.8,3.7c-3.4,7.9-7.4,15.3-14.3,20.8c-17.7,14.2-46.2,9.2-59.3-10.8c-12.6-19.3-14-40.6-9.1-62.6
	c3.7-16.5,11.9-30.2,27.6-37.8c19.3-9.4,43.4-5.8,54.1,19.9c0.8,1.8,1.6,3.6,2.4,5.4C1170.3,70.4,1170.7,70.3,1171.2,70.3z
	 M1111,99.7c0.1,14.2,2.5,25.4,11.1,34.5c10.7,11.3,28.7,10.7,37.5-2.1c12-17.4,11.4-36.3,2.8-54.7c-7.8-16.8-28.7-19.3-41.2-5.5
	C1113.5,80.3,1111,90.7,1111,99.7z"/>
<path d="M643.8,124.1c-4.7,8.3-8.5,17-14,24.3c-12.6,16.6-36.9,21.3-55,11.4c-12.6-6.9-17.7-18.5-19.9-31.9
	c-0.8-4.9-1.2-9.9-1.2-14.9c-0.1-21.7,0-43.4-0.1-65c0-3.9,1.1-5.4,5.1-5.2c6,0.3,12,0.3,18,0c3.8-0.2,4.8,1.2,4.8,4.9
	c-0.2,20.5-0.1,41,0,61.5c0,3.8,0.2,7.7,0.8,11.5c2,13.3,12.1,20.6,25.4,18.9c11.4-1.5,19.2-7.9,24.9-17.3
	c7.9-13.1,10.5-27.6,10.8-42.6c0.2-10.7,0.2-21.3,0-32c-0.1-3.8,1.2-5,4.9-4.8c6.2,0.2,12.3,0.2,18.5,0c3.1-0.1,4.5,0.9,4.4,4.3
	c-0.1,36.9-0.1,73.7,0,110.6c0,3.1-0.8,4.6-4.2,4.5c-6.2-0.2-12.3-0.2-18.5,0c-3.6,0.1-4.6-1.4-4.5-4.7c0.2-9.3,0-18.7,0-28
	C643.8,127.4,643.8,125.6,643.8,124.1z"/>
<path d="M1214.3,102.2c0-17.8,0.2-35.7-0.1-53.5c-0.1-5,1.6-6.2,6.3-6.1c16.1,0.5,32.3-0.1,48.4,0.9c26.3,1.7,47.9,19.7,53.2,43.3
	c7.6,34.2-11.1,64.4-45.1,72.6c-6.3,1.5-12.8,2.1-19.3,2.3c-11,0.4-22,0.1-33,0.1c-10.4,0-10.4,0-10.4-10.7
	C1214.3,134.9,1214.3,118.5,1214.3,102.2z M1241.4,60c0,10.5,0,19.3,0,28.1c0,16.7,0,33.3,0,50c0,2.1-0.4,4.7,2.9,4.6
	c7.5-0.3,15.2,0.3,22.4-1.3c18.5-4,29.4-20.2,28.7-40.8c-0.7-20.2-9.1-33.6-25.7-37.8C1260.9,60.6,1251.4,60.9,1241.4,60z"/>
<path d="M954.8,103.2c-0.6-30.7,17.5-55.4,45.5-61.1c36.8-7.4,72.8,12.2,73.1,60.3c0.3,47.9-45.6,76-88.8,55.6
	c-19.7-9.4-27.8-27.3-29.8-48.3C954.7,107.5,954.8,105.4,954.8,103.2z M979.8,99.3c0.1,15.7,3.4,25.6,10.3,33.6
	c12.2,14.2,35.8,13.7,47.5-0.9c11.8-14.7,12.9-40.3,2.4-56c-10.7-16.1-33.1-19-47.5-6.1C983,78.4,980.3,89.7,979.8,99.3z"/>
<path d="M955.4,41.3c0,7.2,0.2,14.2-0.2,21.2c0,1.1-2.2,2.9-3.4,3c-21.4,0.9-36,20.8-35.5,40.9c0.4,16.8,0,33.7,0.2,50.5
	c0,3.9-1,5.4-5.1,5.2c-5.8-0.3-11.7-0.3-17.5,0c-3.8,0.2-4.8-1.3-4.8-4.9c0.1-36.7,0.1-73.3,0-110c0-3.4,1-4.8,4.5-4.7
	c6.2,0.2,12.3,0.2,18.5,0c3-0.1,4.1,1,4,4.1c-0.1,9.5-0.1,18.9-0.1,29.5C926.6,50.9,939.5,39.5,955.4,41.3z"/>
<circle cx="296.9" cy="111.5" r="84.5"/>
<g>
	<path class="st0" d="M290.4,18c-46.4,0-84,37.6-84,84s37.6,84,84,84s84-37.6,84-84S336.8,18,290.4,18z M332.4,143.4
		c-15.6,0.7-15.5,0.8-15.8-14.6c0-1.2-0.1-2.4-0.2-4.8c-1.2,1.8-1.9,2.6-2.3,3.4c-6.6,13.6-17.9,18.8-32.3,17.7
		c-15.3-1.1-26.4-8.9-32-23.3c-8.6-21.8-4.4-43.5,11.1-57.3c16.7-14.9,54.2-15.4,68.6,7.3c2.7,4.3,4.2,9.4,7.1,16
		c-9,0-15.5,0.1-22-0.1c-1.1,0-2.8-1.8-3.2-3c-4.1-15.9-26.9-18.1-37.1-5.4c-8.4,10.4-9.1,29.4-0.6,39.7c6.1,7.4,14.1,10.1,23.3,7.9
		c9.6-2.3,13.8-9.5,15.8-19.8c-5.2,0-10,0-14.8,0c-7.5,0-7.7-0.3-6-9.1c11.2,0,22.6-0.1,34,0c13.9,0.1,11.4-1.1,11.5,11.4
		c0.1,9.5-0.1,19.1,0.1,28.6C337.7,142,336.2,143.2,332.4,143.4z"/>
	<path d="M337.5,109.5c-0.2-12.5,2.3-11.3-11.5-11.4c-11.4-0.1-22.8,0-34,0c-1.6,8.8-1.4,9.1,6,9.1c4.8,0,9.6,0,14.8,0
		c-1.9,10.3-6.2,17.5-15.8,19.8c-9.2,2.2-17.2-0.5-23.3-7.9c-8.5-10.3-7.8-29.3,0.6-39.7c10.3-12.7,33-10.4,37.1,5.4
		c0.3,1.2,2,2.9,3.2,3c6.5,0.3,13,0.1,22,0.1c-2.9-6.6-4.3-11.7-7.1-16c-14.4-22.8-51.9-22.2-68.6-7.3
		c-15.5,13.8-19.7,35.5-11.1,57.3c5.7,14.3,16.7,22.1,32,23.3c14.4,1.1,25.7-4.1,32.3-17.7c0.4-0.9,1.1-1.6,2.3-3.4
		c0.1,2.4,0.2,3.6,0.2,4.8c0.2,15.3,0.2,15.2,15.8,14.6c3.8-0.2,5.2-1.4,5.2-5.3C337.4,128.6,337.6,119,337.5,109.5z"/>
</g>
<path d="M169.4,104.7L43.9,32v145L169.4,104.7L169.4,104.7z"/>
<circle class="st1" cx="290.4" cy="102" r="84"/>
</svg>
