<?xml version="1.0" encoding="utf-8"?>
<!-- Generator: Adobe Illustrator 24.0.2, SVG Export Plug-In . SVG Version: 6.00 Build 0)  -->
<svg version="1.1" id="Layer_1" xmlns="http://www.w3.org/2000/svg" xmlns:xlink="http://www.w3.org/1999/xlink" x="0px" y="0px"
	 viewBox="0 0 149 124" style="enable-background:new 0 0 149 124;" xml:space="preserve">
<path d="M121,0.2l-25.1,23L87.9,26h-27l-8.1-2.8l-25.1-23l-7.5,7l1.3,28.3l16.4,32.9C49.1,74,61.1,78.7,74.3,78.7
	s25.2-4.7,36.4-10.4l16.4-32.9l1.3-28.3L121,0.2z M39.2,66.8L23.1,35.2l-0.2-7.9l19.4,41C41.2,67.8,40.2,67.3,39.2,66.8z M44.2,69.1
	L22.8,23.9L22.5,8.1l2.8-2.6l25.4,66.4C48.9,71.2,45.9,69.9,44.2,69.1z M53.9,72.8L28.3,4.6l22.5,23.9L62.9,75
	C59.8,74.5,56.8,73.7,53.9,72.8z M80.1,75.8c-1.9,0.2-3.9,0.3-5.8,0.3c-2,0-3.9-0.1-5.8-0.3l-2.7-2.8L57.1,34l4.8-4.8h24.9l4.8,4.8
	l-8.8,39.1L80.1,75.8z M85.8,75l12.1-46.6l22.5-23.9L94.8,72.8C91.9,73.7,88.9,74.5,85.8,75z M125.6,35.2l-16.1,31.6
	c-1,0.5-2,1-3.1,1.5l19.4-41L125.6,35.2z M125.8,23.9l-21.4,45.2c-1.7,0.7-4.7,2.1-6.5,2.7l25.4-66.4l2.8,2.6L125.8,23.9z"/>
<path d="M22.9,116.9c-0.1-0.4-0.4-1-0.8-1.7c-0.4-0.7-1-1.3-1.9-2c-0.9-0.6-2-1.2-3.4-1.6c-1.4-0.5-3.2-0.7-5.4-0.7
	c-0.5,0-1.1,0-1.6,0.1c-0.5,0.1-1,0.1-1.4,0.2s-0.8,0.1-1.1,0.2c-0.3,0-0.5,0-0.7-0.1c-0.1-0.1-0.2-0.2-0.1-0.5
	c0.1-0.2,0.3-0.6,0.6-1.1c-1.1-0.6-2-1.4-2.9-2.5c-0.9-1.1-1.6-2.3-2.2-3.8c-0.6-1.5-1.1-3.2-1.4-5s-0.5-3.9-0.5-6.2
	c0-3,0.3-5.6,0.9-7.9c0.6-2.3,1.4-4.3,2.4-5.8c1-1.6,2.2-2.8,3.6-3.6c1.4-0.8,2.8-1.2,4.4-1.2c1.5,0,2.9,0.4,4.2,1.2
	c1.3,0.8,2.5,2,3.5,3.6c1,1.6,1.8,3.5,2.4,5.8c0.6,2.3,0.9,5,0.9,7.9c0,1.8-0.1,3.6-0.4,5.2c-0.2,1.6-0.6,3.1-1.1,4.4
	c-0.5,1.3-1,2.5-1.6,3.6c-0.6,1.1-1.3,2-2.1,2.7c0.8,0.1,1.5,0.3,2.1,0.4c0.6,0.2,1.1,0.3,1.4,0.5c0.4,0.2,0.8,0.3,1.1,0.5l1.3,7.2
	L22.9,116.9z M10.6,107.9c0.1,0,0.3,0,0.5,0c1.1,0,2.1-0.4,3-1.3c0.9-0.9,1.6-2.1,2.1-3.5c0.6-1.4,1-3.1,1.3-4.9
	c0.3-1.8,0.4-3.7,0.4-5.7c0-1.3-0.1-2.6-0.2-3.9c-0.1-1.3-0.3-2.5-0.6-3.6c-0.3-1.2-0.6-2.2-1-3.2s-0.8-1.9-1.4-2.6
	c-0.5-0.7-1.1-1.3-1.7-1.7c-0.6-0.4-1.3-0.6-2.1-0.6c-0.7,0-1.4,0.2-2,0.6c-0.6,0.4-1.1,1-1.6,1.7c-0.5,0.7-0.9,1.6-1.3,2.6
	c-0.4,1-0.7,2.1-0.9,3.3c-0.3,1.2-0.4,2.4-0.6,3.7c-0.1,1.3-0.2,2.6-0.2,3.9c0,1.9,0.1,3.7,0.4,5.4c0.3,1.8,0.6,3.4,1.1,4.8
	c0.5,1.4,1.1,2.6,1.9,3.5C8.6,107.3,9.5,107.8,10.6,107.9z"/>
<path d="M44,97.3c0,2.4,0,4.3,0.1,5.8c0,1.5,0.2,2.7,0.4,3.5c0.2,0.9,0.6,1.5,1.2,1.8c0.5,0.3,1.3,0.5,2.3,0.5v0.1l-7.5,2.2
	c0.1-0.5,0.2-1.1,0.2-1.7c0-0.7,0-1.3,0-2c-0.5,0.8-1,1.4-1.6,1.9c-0.6,0.5-1.2,0.9-1.8,1.1c-0.6,0.3-1.2,0.5-1.8,0.6
	c-0.6,0.1-1.2,0.2-1.7,0.2c-1.8,0-3.3-1-4.3-3.1c-1-2.1-1.6-5.1-1.6-9.1c0-2.5,0-4.6,0-6.2c0-1.6-0.2-2.9-0.4-3.8
	c-0.2-0.9-0.6-1.6-1.2-1.9c-0.5-0.4-1.3-0.5-2.4-0.5v-0.1l9-3.4c-0.1,0.2-0.3,0.5-0.4,0.8s-0.2,0.6-0.3,1c-0.1,0.4-0.1,0.9-0.2,1.5
	c0,0.6-0.1,1.2-0.1,2.1s0,1.8,0,2.9c0,1.1,0,2.4,0,3.9c0,2,0,3.8,0.1,5.4c0,1.6,0.2,3,0.4,4.2c0.2,1.2,0.5,2.1,0.9,2.7
	c0.4,0.6,1,1,1.7,1c0.7,0,1.3-0.2,1.9-0.6c0.6-0.4,1.2-0.9,1.6-1.7c0.5-0.8,0.8-1.7,1.1-2.9c0.3-1.2,0.4-2.5,0.4-4.1
	c0-2.5,0-4.6,0-6.2s-0.2-2.9-0.4-3.8c-0.2-0.9-0.6-1.6-1.2-1.9c-0.5-0.4-1.3-0.5-2.4-0.5v-0.1L45,83c-0.1,0.3-0.3,0.6-0.4,0.9
	c-0.1,0.3-0.2,0.7-0.3,1.2c-0.1,0.5-0.1,1-0.2,1.7c0,0.7-0.1,1.5-0.1,2.5c0,1,0,2.1-0.1,3.4S44,95.6,44,97.3z"/>
<path d="M63,98.5c0-2,0-3.9-0.1-5.9s-0.1-4-0.2-5.9c-0.1-0.7-0.3-1.3-0.8-1.8c-0.4-0.5-1.1-0.9-2-1.1v-0.1h10.4v0.1
	c-1.1,0.2-1.9,0.6-2.4,1.1c-0.5,0.5-0.8,1.2-0.8,1.9c-0.1,2.1-0.2,4-0.2,5.8c-0.1,1.8-0.1,3.6-0.1,5.3c0,1.5,0,2.8,0,3.8
	c0,1,0,2,0,2.9c0,0.9,0,1.8,0,2.7c0,0.9,0,2,0,3.1c0,2.6-0.2,4.7-0.6,6.4c-0.4,1.7-0.9,3.1-1.6,4.1c-0.7,1-1.4,1.8-2.3,2.2
	c-0.9,0.4-1.9,0.7-2.9,0.7c-0.8,0-1.6-0.1-2.5-0.4c-0.9-0.3-1.7-0.7-2.5-1.3c-0.8-0.6-1.4-1.4-1.9-2.4c-0.5-1-0.8-2.1-0.8-3.5
	c0-0.3,0-0.5,0-0.8c0-0.3,0.1-0.5,0.1-0.8l6.9-1.4l0,0.1c-1.1,0.5-1.9,1.2-2.4,1.9c-0.5,0.7-0.8,1.4-0.8,2.2c0,0.3,0.1,0.7,0.2,1.1
	c0.1,0.4,0.3,0.7,0.6,1c0.3,0.3,0.6,0.6,1,0.8c0.4,0.2,0.9,0.3,1.6,0.3c0.3,0,0.7,0,1-0.1c0.3-0.1,0.6-0.2,0.9-0.4
	c0.3-0.2,0.6-0.6,0.8-1c0.2-0.5,0.5-1.1,0.6-1.9c0.2-0.8,0.3-1.9,0.4-3.1c0.1-1.3,0.2-2.8,0.2-4.6c-1.3,1-2.6,1.5-3.9,1.5
	c-1.2,0-2.3-0.2-3.3-0.7s-1.9-1.1-2.6-1.9c-0.7-0.8-1.3-1.8-1.7-3.1c-0.4-1.2-0.6-2.6-0.6-4.2c0-1.2,0-2.2,0-3c0-0.8,0-1.6,0-2.3
	c0-0.7,0-1.4,0-2c0-0.6,0-1.3,0-2c0-0.7,0-1.4-0.1-2.3c0-0.8-0.1-1.8-0.1-3c-0.1-0.7-0.3-1.3-0.7-1.8c-0.4-0.5-1-0.9-1.9-1.1v-0.1
	h9.5v0.1c-0.9,0.2-1.5,0.6-1.9,1.1s-0.6,1.2-0.6,1.9c0,1.3-0.1,2.6-0.1,3.9s0,2.5,0,3.7s0,2.2,0,3.2c0,1,0,1.8,0,2.5
	c0,2.7,0.4,4.7,1.2,6.1s2,2.1,3.5,2.1c0.4,0,0.9-0.1,1.5-0.3c0.5-0.2,1.1-0.5,1.7-0.9v-0.4L63,98.5z"/>
<path d="M78,96.1c0.7-2.5,1.2-4.6,1.6-6.2s0.7-2.8,0.9-3.5c-0.9,0-1.8,0.1-2.7,0.2s-1.8,0.2-2.6,0.5c-0.8,0.2-1.4,0.6-1.9,1
	c-0.5,0.4-0.7,1.1-0.7,1.8l-0.2,0c0-0.6,0-1.2,0-1.9c0-0.7,0-1.4,0.1-2c0-0.7,0-1.5,0.1-2.2h16v0.2c-1.2,0.4-2.1,1-2.7,1.7
	c-0.7,0.8-1.2,1.7-1.6,2.7c-0.4,1-0.7,2.1-1,3.3c-0.3,1.2-0.6,2.4-0.9,3.7c-0.4,1.8-0.8,3.5-1.2,5.3c-0.4,1.8-0.9,3.7-1.4,5.8
	c-0.1,0.2-0.2,0.5-0.3,0.7c-0.1,0.2-0.1,0.5-0.1,0.7c0.9,0,1.8-0.1,2.7-0.2c0.9-0.1,1.8-0.2,2.5-0.5c0.8-0.2,1.4-0.6,1.9-1
	c0.5-0.4,0.8-1,0.8-1.8l0.2,0c-0.1,0.6-0.1,1.2-0.2,1.9c-0.1,0.7-0.1,1.4-0.2,2c-0.1,0.7-0.2,1.5-0.3,2.2H71.7v-0.1
	c0.9-0.3,1.7-0.8,2.3-1.5c0.6-0.7,1.1-1.5,1.4-2.5c0.4-1.6,0.9-3.4,1.3-5.1S77.6,97.7,78,96.1z"/>
<path d="M90.4,97c0-2.3,0.2-4.3,0.7-6.1c0.4-1.8,1-3.2,1.8-4.5c0.8-1.2,1.6-2.1,2.7-2.7c1-0.6,2.1-0.9,3.3-0.9
	c1.1,0,2.2,0.3,3.2,0.9c1,0.6,1.9,1.5,2.6,2.7c0.7,1.2,1.3,2.7,1.8,4.5c0.4,1.8,0.7,3.8,0.7,6.1c0,2.3-0.2,4.3-0.7,6.1
	c-0.4,1.8-1,3.3-1.8,4.5s-1.6,2.1-2.6,2.8c-1,0.6-2.1,0.9-3.2,0.9c-1.2,0-2.3-0.3-3.3-0.9c-1-0.6-1.9-1.6-2.7-2.8s-1.3-2.7-1.8-4.5
	C90.6,101.3,90.4,99.3,90.4,97z M94.5,97c0,3.7,0.4,6.6,1.1,8.5s1.8,2.9,3.1,2.9c1.4,0,2.4-1,3.1-2.9c0.7-1.9,1-4.7,1-8.5
	s-0.3-6.6-1-8.4c-0.7-1.9-1.7-2.8-3.1-2.8c-1.3,0-2.4,0.9-3.1,2.8S94.5,93.3,94.5,97z"/>
<path d="M127.5,93.9c0,1.3,0,2.5,0,3.6s0,2.2,0,3.2s0,2.1,0.1,3.2s0.1,2.3,0.1,3.5c0.1,0.7,0.3,1.3,0.7,1.8c0.4,0.5,1.1,0.9,2,1.1
	v0.1h-8.8v-0.1c0.7-0.2,1.2-0.6,1.5-1.1c0.3-0.5,0.5-1.2,0.6-1.9c0.1-1.8,0.1-3.3,0.1-4.7c0-1.4,0-2.6,0-3.6c0-2,0-3.8-0.1-5.4
	c0-1.6-0.1-3-0.3-4.2c-0.2-1.2-0.5-2.1-0.8-2.7c-0.4-0.6-0.9-1-1.5-1c-0.6,0-1.2,0.2-1.7,0.5c-0.5,0.4-1,0.9-1.4,1.5s-0.7,1.4-1,2.3
	c-0.2,0.9-0.4,1.9-0.4,3v3.6c0,1.8,0,3.6,0.1,5.4c0,1.8,0.1,3.6,0.2,5.4c0.1,0.7,0.2,1.3,0.6,1.8c0.3,0.5,0.8,0.9,1.4,1.1v0.1h-9
	v-0.1c0.9-0.2,1.6-0.6,2-1.1c0.4-0.5,0.6-1.2,0.7-1.9c0.1-1.8,0.2-3.6,0.2-5.2c0.1-1.6,0.1-3.2,0.1-4.8c0-2.1,0-3.9-0.1-5.3
	c0-1.4-0.2-2.5-0.4-3.4s-0.7-1.4-1.2-1.8c-0.5-0.4-1.3-0.5-2.4-0.5v-0.1l7.6-3.3c-0.2,0.5-0.2,1.1-0.3,1.7c0,0.7,0,1.3,0,2
	c0.4-0.8,0.8-1.4,1.2-1.9c0.4-0.5,0.9-0.9,1.4-1.1c0.5-0.3,0.9-0.5,1.4-0.6c0.5-0.1,0.9-0.2,1.3-0.2c1.9,0,3.4,0.9,4.4,2.8
	C127,87.5,127.5,90.3,127.5,93.9z"/>
<path d="M142.9,101l6,0.6c0,1.7-0.2,3.1-0.7,4.3s-1.1,2.2-1.8,3c-0.7,0.8-1.5,1.4-2.4,1.8c-0.9,0.4-1.7,0.6-2.6,0.6
	c-1.2,0-2.4-0.3-3.4-0.9c-1.1-0.6-2-1.6-2.8-2.8c-0.8-1.2-1.4-2.7-1.8-4.5c-0.4-1.8-0.7-3.8-0.7-6.1c0-2.3,0.2-4.3,0.7-6.1
	c0.4-1.8,1.1-3.2,1.8-4.5c0.8-1.2,1.7-2.1,2.8-2.8c1.1-0.6,2.2-0.9,3.4-0.9c1,0,1.9,0.3,2.8,0.8c0.9,0.5,1.6,1.4,2.2,2.4
	c0.6,1.1,1.2,2.4,1.6,4c0.4,1.6,0.6,3.4,0.7,5.5L137,99.6c0.2,3.1,0.8,5.3,1.6,6.7s1.9,2.1,3.2,2.1c0.6,0,1.1-0.1,1.5-0.3
	c0.4-0.2,0.8-0.5,1-0.9c0.3-0.4,0.5-0.8,0.6-1.3c0.1-0.5,0.2-1,0.2-1.5c0-0.6-0.2-1.2-0.6-1.8c-0.4-0.6-1-1.1-1.7-1.5L142.9,101z
	 M136.9,97.1c0.5-0.2,1.2-0.5,2-0.8c0.8-0.3,1.8-0.8,3-1.3c0.7-0.3,1.3-0.6,1.8-0.9c0.5-0.3,0.9-0.6,1.3-0.8
	c-0.2-2.6-0.6-4.5-1.2-5.7c-0.6-1.2-1.4-1.8-2.4-1.8c-1.4,0-2.5,0.9-3.3,2.8c-0.8,1.9-1.2,4.7-1.2,8.5V97.1z"/>
</svg>
