<?xml version="1.0" encoding="utf-8"?>
<!-- Generator: Adobe Illustrator 24.0.2, SVG Export Plug-In . SVG Version: 6.00 Build 0)  -->
<svg version="1.1" xmlns="http://www.w3.org/2000/svg" xmlns:xlink="http://www.w3.org/1999/xlink" x="0px" y="0px"
	 viewBox="0 0 70 70" style="enable-background:new 0 0 70 70;" xml:space="preserve">
<style type="text/css">
	.st0{fill:#FFFFFF;}
</style>
<g id="Layer_2">
</g>
<g id="Layer_1">
	<path class="st0" d="M35,2c18.2,0,33,14.8,33,33S53.2,68,35,68S2,53.2,2,35S16.8,2,35,2"/>
	<path d="M34.8,16l18.8,32.5H16L34.8,16 M34.8,12L12.5,50.5H57L34.8,12L34.8,12z"/>
	<path d="M35,2c18.2,0,33,14.8,33,33S53.2,68,35,68S2,53.2,2,35S16.8,2,35,2 M35,0C15.7,0,0,15.7,0,35s15.7,35,35,35s35-15.7,35-35
		S54.3,0,35,0L35,0z"/>
	<polyline class="st0" points="34.8,16 53.6,48.5 16,48.5 34.8,16 	"/>
</g>
</svg>
