<?xml version="1.0" encoding="utf-8"?>
<!-- Generator: Adobe Illustrator 24.0.2, SVG Export Plug-In . SVG Version: 6.00 Build 0)  -->
<svg version="1.1" id="svg9" xmlns:svg="http://www.w3.org/2000/svg"
	 xmlns="http://www.w3.org/2000/svg" xmlns:xlink="http://www.w3.org/1999/xlink" x="0px" y="0px" viewBox="0 0 666.7 666.7"
	 style="enable-background:new 0 0 666.7 666.7;" xml:space="preserve">
<style type="text/css">
	.st0{fill:#0866FF;}
	.st1{fill:#FFFFFF;}
</style>
<g id="g21">
	<g id="g27" transform="translate(600,350)">
		<path id="path29" class="st0" d="M66.7-16.7C66.7-200.8-82.6-350-266.7-350S-600-200.8-600-16.7c0,156.3,107.6,287.5,252.8,323.5
			V85.2h-68.7V-16.7h68.7v-43.9c0-113.5,51.3-166,162.7-166c21.1,0,57.6,4.1,72.5,8.3v92.3c-7.9-0.8-21.5-1.2-38.5-1.2
			c-54.7,0-75.8,20.7-75.8,74.5v36h108.9l-18.7,101.9h-90.2v229C-61.2,294.3,66.7,153.8,66.7-16.7"/>
	</g>
	<g id="g31" transform="translate(447.9175,273.6036)">
		<path id="path33" class="st1" d="M16,161.6L34.7,59.7H-74.2v-36c0-53.8,21.1-74.5,75.8-74.5c17,0,30.6,0.4,38.5,1.2v-92.3
			c-14.9-4.1-51.3-8.3-72.5-8.3c-111.4,0-162.7,52.6-162.7,166v43.9h-68.7v101.9h68.7v221.7c25.8,6.4,52.8,9.8,80.5,9.8
			c13.7,0,27.1-0.8,40.4-2.4v-229H16z"/>
	</g>
</g>
</svg>
