<?xml version="1.0" encoding="utf-8"?>
<!-- Generator: Adobe Illustrator 24.0.2, SVG Export Plug-In . SVG Version: 6.00 Build 0)  -->
<svg version="1.1" id="Layer_1" xmlns="http://www.w3.org/2000/svg" xmlns:xlink="http://www.w3.org/1999/xlink" x="0px" y="0px"
	 viewBox="0 0 1330.4 204" style="enable-background:new 0 0 1330.4 204;" xml:space="preserve">
<style type="text/css">
	.st0{fill:#FF90E8;}
	.st1{fill:none;stroke:#000000;stroke-width:3;stroke-miterlimit:10;}
</style>
<path d="M749.5,161.9c-8.7,0-16.5,0-24.3,0c-3.8,0-3-2.8-3-5c-0.1-20.3,0-40.7-0.2-61c-0.1-5.1-0.6-10.3-1.6-15.4
	C717,63,702.6,62.7,692.1,67.6c-6.9,3.2-10.9,9.2-13.9,15.8c-5,11.1-7.5,22.8-7.6,34.9c-0.1,13-0.1,26,0.1,39c0,3.5-1,4.7-4.6,4.6
	c-6.3-0.2-12.7-0.1-19,0c-2.6,0-3.9-0.6-3.9-3.6c0.1-38,0.1-76,0.1-114.1c0-0.3,0.2-0.6,0.6-1.8c8,0,16.2-0.1,24.4,0.2
	c0.7,0,1.8,2.8,1.9,4.4c0.2,8.5,0.1,17,0.1,25.5c0,1.6,0,3.2,0,4.8c0.4,0.1,0.8,0.2,1.2,0.3c0.6-1.6,1.1-3.2,1.7-4.7
	c4.5-11.9,11-22.2,22.6-28.2c20.5-10.7,42.9-1.2,50,21.1c1.5,4.7,2.2,9.6,3.4,15.3c1-2.5,1.5-4.4,2.5-6c4-7,7.4-14.7,12.4-20.9
	c10.6-12.9,24.7-16.7,40.5-11.8c14.7,4.6,20,16.7,22.3,30.5c1,6,1.4,12.3,1.4,18.4c0.2,21.8,0,43.7,0.2,65.5c0,4-1.3,5.2-5.1,5
	c-5.7-0.3-11.3-0.3-17,0c-4.3,0.3-5.3-1.6-5.3-5.5c0.1-20.2,0-40.4-0.2-60.5c0-4.6-0.5-9.3-1.3-13.9c-3.2-17.3-19.5-22.9-33-11.5
	c-8.6,7.3-12.3,17.4-14.4,27.9c-1.6,8.1-2.4,16.5-2.6,24.8C749.2,135.9,749.5,148.5,749.5,161.9z"/>
<path d="M495.8,101.6c0,8.7,0,16.5,0,24.3c0,10.5-0.1,21,0.1,31.5c0.1,3.4-1,4.7-4.6,4.6c-6-0.2-12-0.3-18,0c-4.1,0.2-5.1-1.5-5-5.3
	c0.2-8.8,0.1-17.6-0.7-26.6c-0.5,1.3-1.1,2.5-1.5,3.8c-8.7,27.3-32,35-55.5,29c-21.3-5.4-32.9-20.5-37.6-41.2
	c-4.4-19.8-2.7-38.8,9.1-56.1c9.9-14.6,24.3-21.9,41.5-24c18.3-2.2,35.7,0,50.7,11.7c10.3,8.1,16.2,18.7,17.8,32.6
	c-9.9,0-19.5,0.1-29.1-0.1c-0.8,0-1.9-1.7-2.2-2.7c-3-10.7-9.7-17.5-20.6-19.4c-12.1-2.1-22.8,1.1-31,10.8
	c-12.9,15.3-11.9,43,1.5,57.9c12.4,13.7,39.7,14.9,49-8.1c1.3-3.2,2.4-6.5,3.9-10.8c-3.9,0-7.2,0-10.4,0c-4.2,0-8.3,0-12.5,0
	c-6.9,0-9.3-3.2-7-9.7c0.3-0.9,1.9-2,2.9-2C456.1,101.5,475.6,101.6,495.8,101.6z"/>
<path d="M1127.2,70.3c0-9.1,0-18.1,0-27.8c8.4,0,16.4-0.1,24.3,0.2c0.9,0,2.4,2.8,2.4,4.4c0.2,11.7,0.1,23.3,0.1,35
	c0,24.7-0.1,49.4,0.1,74.1c0,4.6-1.2,6.2-5.9,5.9c-6.8-0.4-13.6-0.1-20.9-0.1c0-10.3,0-20,0-29.8c-0.3-0.1-0.7-0.2-1-0.3
	c-0.6,1.2-1.3,2.4-1.8,3.7c-3.4,7.9-7.4,15.3-14.3,20.8c-17.7,14.2-46.2,9.2-59.3-10.8c-12.6-19.3-14-40.6-9.1-62.6
	c3.7-16.5,11.9-30.2,27.6-37.8c19.3-9.4,43.4-5.8,54.1,19.9c0.8,1.8,1.6,3.6,2.4,5.4C1126.3,70.4,1126.7,70.3,1127.2,70.3z
	 M1067,99.7c0.1,14.2,2.5,25.4,11.1,34.5c10.7,11.3,28.7,10.7,37.5-2.1c12-17.4,11.4-36.3,2.8-54.7c-7.8-16.8-28.7-19.3-41.2-5.5
	C1069.5,80.3,1067,90.7,1067,99.7z"/>
<path d="M599.8,124.1c-4.7,8.3-8.5,17-14,24.3c-12.6,16.6-36.9,21.3-55,11.4c-12.6-6.9-17.7-18.5-19.9-31.9
	c-0.8-4.9-1.2-9.9-1.2-14.9c-0.1-21.7,0-43.4-0.1-65c0-3.9,1.1-5.4,5.1-5.2c6,0.3,12,0.3,18,0c3.8-0.2,4.8,1.2,4.8,4.9
	c-0.2,20.5-0.1,41,0,61.5c0,3.8,0.2,7.7,0.8,11.5c2,13.3,12.1,20.6,25.4,18.9c11.4-1.5,19.2-7.9,24.9-17.3
	c7.9-13.1,10.5-27.6,10.8-42.6c0.2-10.7,0.2-21.3,0-32c-0.1-3.8,1.2-5,4.9-4.8c6.2,0.2,12.3,0.2,18.5,0c3.1-0.1,4.5,0.9,4.4,4.3
	c-0.1,36.9-0.1,73.7,0,110.6c0,3.1-0.8,4.6-4.2,4.5c-6.2-0.2-12.3-0.2-18.5,0c-3.6,0.1-4.6-1.4-4.5-4.7c0.2-9.3,0-18.7,0-28
	C599.8,127.4,599.8,125.6,599.8,124.1z"/>
<path d="M1170.3,102.2c0-17.8,0.2-35.7-0.1-53.5c-0.1-5,1.6-6.2,6.3-6.1c16.1,0.5,32.3-0.1,48.4,0.9c26.3,1.7,47.9,19.7,53.2,43.3
	c7.6,34.2-11.1,64.4-45.1,72.6c-6.3,1.5-12.8,2.1-19.3,2.3c-11,0.4-22,0.1-33,0.1c-10.4,0-10.4,0-10.4-10.7
	C1170.3,134.9,1170.3,118.5,1170.3,102.2z M1197.4,60c0,10.5,0,19.3,0,28.1c0,16.7,0,33.3,0,50c0,2.1-0.4,4.7,2.9,4.6
	c7.5-0.3,15.2,0.3,22.4-1.3c18.5-4,29.4-20.2,28.7-40.8c-0.7-20.2-9.1-33.6-25.7-37.8C1216.9,60.6,1207.4,60.9,1197.4,60z"/>
<path d="M910.8,103.2c-0.6-30.7,17.5-55.4,45.5-61.1c36.8-7.4,72.8,12.2,73.1,60.3c0.3,47.9-45.6,76-88.8,55.6
	c-19.7-9.4-27.8-27.3-29.8-48.3C910.7,107.5,910.8,105.4,910.8,103.2z M935.8,99.3c0.1,15.7,3.4,25.6,10.3,33.6
	c12.2,14.2,35.8,13.7,47.5-0.9c11.8-14.7,12.9-40.3,2.4-56c-10.7-16.1-33.1-19-47.5-6.1C939,78.4,936.3,89.7,935.8,99.3z"/>
<path d="M911.4,41.3c0,7.2,0.2,14.2-0.2,21.2c0,1.1-2.2,2.9-3.4,3c-21.4,0.9-36,20.8-35.5,40.9c0.4,16.8,0,33.7,0.2,50.5
	c0,3.9-1,5.4-5.1,5.2c-5.8-0.3-11.7-0.3-17.5,0c-3.8,0.2-4.8-1.3-4.8-4.9c0.1-36.7,0.1-73.3,0-110c0-3.4,1-4.8,4.5-4.7
	c6.2,0.2,12.3,0.2,18.5,0c3-0.1,4.1,1,4,4.1c-0.1,9.5-0.1,18.9-0.1,29.5C882.6,50.9,895.5,39.5,911.4,41.3z"/>
<circle cx="272.6" cy="106.2" r="85.9"/>
<g>
	<path class="st0" d="M266,11.1c-47.2,0-85.4,38.2-85.4,85.4s38.2,85.4,85.4,85.4s85.4-38.2,85.4-85.4S313.1,11.1,266,11.1z
		 M308.7,138.5c-15.8,0.8-15.8,0.8-16-14.8c0-1.2-0.1-2.5-0.2-4.9c-1.2,1.8-1.9,2.6-2.4,3.5c-6.7,13.9-18.2,19.1-32.8,18
		c-15.6-1.1-26.9-9.1-32.5-23.7c-8.8-22.2-4.4-44.2,11.3-58.3c17-15.2,55.1-15.7,69.7,7.5c2.7,4.3,4.2,9.5,7.3,16.2
		c-9.1,0-15.8,0.1-22.4-0.1c-1.1,0-2.8-1.8-3.2-3c-4.2-16.1-27.4-18.4-37.7-5.5c-8.6,10.6-9.2,29.9-0.6,40.4
		c6.2,7.5,14.3,10.3,23.7,8c9.7-2.4,14.1-9.6,16-20.1c-5.3,0-10.2,0-15.1,0c-7.6,0-7.8-0.3-6.1-9.2c11.4,0,23-0.1,34.5,0
		c14.1,0.1,11.6-1.1,11.7,11.6c0.1,9.6-0.1,19.4,0.1,29.1C314.1,137.1,312.6,138.3,308.7,138.5z"/>
	<path d="M313.9,104.1c-0.2-12.7,2.4-11.5-11.7-11.6c-11.6-0.1-23.2,0-34.5,0c-1.6,9-1.4,9.2,6.1,9.2c4.9,0,9.7,0,15.1,0
		c-1.9,10.5-6.3,17.8-16,20.1c-9.3,2.3-17.4-0.5-23.7-8c-8.7-10.5-7.9-29.8,0.6-40.4c10.5-12.9,33.6-10.6,37.7,5.5
		c0.3,1.2,2.1,2.9,3.2,3c6.6,0.3,13.2,0.1,22.4,0.1c-2.9-6.7-4.3-11.9-7.3-16.2c-14.6-23.2-52.7-22.5-69.7-7.5
		c-15.8,14.1-20,36.1-11.3,58.3c5.8,14.5,17,22.4,32.5,23.7c14.6,1.1,26.1-4.2,32.8-18c0.4-0.9,1.1-1.6,2.4-3.5
		c0.1,2.5,0.2,3.7,0.2,4.9c0.2,15.6,0.2,15.5,16,14.8c3.9-0.2,5.3-1.4,5.3-5.4C313.8,123.5,314,113.7,313.9,104.1z"/>
</g>
<path d="M169.4,104.7L43.9,32v145L169.4,104.7L169.4,104.7z"/>
<circle class="st1" cx="266" cy="96.5" r="85.4"/>
</svg>
