<?xml version="1.0" encoding="utf-8"?>
<!-- Generator: Adobe Illustrator 24.0.2, SVG Export Plug-In . SVG Version: 6.00 Build 0)  -->
<svg version="1.1" id="Layer_1" xmlns="http://www.w3.org/2000/svg" xmlns:xlink="http://www.w3.org/1999/xlink" x="0px" y="0px"
	 viewBox="0 0 149 104.9" style="enable-background:new 0 0 149 104.9;" xml:space="preserve">
<path d="M22.9,97.8c-0.1-0.4-0.4-1-0.8-1.7s-1-1.3-1.9-2c-0.9-0.6-2-1.2-3.4-1.6c-1.4-0.5-3.2-0.7-5.4-0.7c-0.5,0-1.1,0-1.6,0.1
	s-1,0.1-1.4,0.2s-0.8,0.1-1.1,0.2c-0.3,0-0.5,0-0.7-0.1c-0.1-0.1-0.2-0.2-0.1-0.5c0.1-0.2,0.3-0.6,0.6-1.1c-1.1-0.6-2-1.4-2.9-2.5
	S2.6,85.8,2,84.3s-1.1-3.2-1.4-5s-0.5-3.9-0.5-6.2c0-3,0.3-5.6,0.9-7.9c0.6-2.3,1.4-4.3,2.4-5.8c1-1.6,2.2-2.8,3.6-3.6
	c1.4-0.8,2.8-1.2,4.4-1.2c1.5,0,2.9,0.4,4.2,1.2c1.3,0.8,2.5,2,3.5,3.6s1.8,3.5,2.4,5.8c0.6,2.3,0.9,5,0.9,7.9
	c0,1.8-0.1,3.6-0.4,5.2c-0.2,1.6-0.6,3.1-1.1,4.4s-1,2.5-1.6,3.6s-1.3,2-2.1,2.7c0.8,0.1,1.5,0.3,2.1,0.4c0.6,0.2,1.1,0.3,1.4,0.5
	c0.4,0.2,0.8,0.3,1.1,0.5l1.3,7.2L22.9,97.8z M10.6,88.8c0.1,0,0.3,0,0.5,0c1.1,0,2.1-0.4,3-1.3s1.6-2.1,2.1-3.5
	c0.6-1.4,1-3.1,1.3-4.9s0.4-3.7,0.4-5.7c0-1.3-0.1-2.6-0.2-3.9s-0.3-2.5-0.6-3.6c-0.3-1.2-0.6-2.2-1-3.2s-0.8-1.9-1.4-2.6
	c-0.5-0.7-1.1-1.3-1.7-1.7c-0.6-0.4-1.3-0.6-2.1-0.6c-0.7,0-1.4,0.2-2,0.6s-1.1,1-1.6,1.7S6.4,61.7,6,62.7c-0.4,1-0.7,2.1-0.9,3.3
	c-0.3,1.2-0.4,2.4-0.6,3.7c-0.1,1.3-0.2,2.6-0.2,3.9c0,1.9,0.1,3.7,0.4,5.4c0.3,1.8,0.6,3.4,1.1,4.8s1.1,2.6,1.9,3.5
	C8.6,88.2,9.5,88.7,10.6,88.8z"/>
<path d="M44,78.2c0,2.4,0,4.3,0.1,5.8c0,1.5,0.2,2.7,0.4,3.5c0.2,0.9,0.6,1.5,1.2,1.8c0.5,0.3,1.3,0.5,2.3,0.5v0.1l-7.5,2.2
	c0.1-0.5,0.2-1.1,0.2-1.7c0-0.7,0-1.3,0-2c-0.5,0.8-1,1.4-1.6,1.9s-1.2,0.9-1.8,1.1c-0.6,0.3-1.2,0.5-1.8,0.6s-1.2,0.2-1.7,0.2
	c-1.8,0-3.3-1-4.3-3.1S27.9,84,27.9,80c0-2.5,0-4.6,0-6.2s-0.2-2.9-0.4-3.8c-0.2-0.9-0.6-1.6-1.2-1.9c-0.5-0.4-1.3-0.5-2.4-0.5v-0.1
	l9-3.4c-0.1,0.2-0.3,0.5-0.4,0.8s-0.2,0.6-0.3,1s-0.1,0.9-0.2,1.5c0,0.6-0.1,1.2-0.1,2.1s0,1.8,0,2.9s0,2.4,0,3.9c0,2,0,3.8,0.1,5.4
	c0,1.6,0.2,3,0.4,4.2s0.5,2.1,0.9,2.7s1,1,1.7,1s1.3-0.2,1.9-0.6c0.6-0.4,1.2-0.9,1.6-1.7c0.5-0.8,0.8-1.7,1.1-2.9
	c0.3-1.2,0.4-2.5,0.4-4.1c0-2.5,0-4.6,0-6.2s-0.2-2.9-0.4-3.8s-0.6-1.6-1.2-1.9c-0.5-0.4-1.3-0.5-2.4-0.5v-0.1l9-3.9
	c-0.1,0.3-0.3,0.6-0.4,0.9c-0.1,0.3-0.2,0.7-0.3,1.2s-0.1,1-0.2,1.7c0,0.7-0.1,1.5-0.1,2.5s0,2.1-0.1,3.4S44,76.5,44,78.2z"/>
<path d="M63,79.4c0-2,0-3.9-0.1-5.9s-0.1-4-0.2-5.9c-0.1-0.7-0.3-1.3-0.8-1.8c-0.4-0.5-1.1-0.9-2-1.1v-0.1h10.4v0.1
	c-1.1,0.2-1.9,0.6-2.4,1.1s-0.8,1.2-0.8,1.9c-0.1,2.1-0.2,4-0.2,5.8c-0.1,1.8-0.1,3.6-0.1,5.3c0,1.5,0,2.8,0,3.8s0,2,0,2.9
	s0,1.8,0,2.7c0,0.9,0,2,0,3.1c0,2.6-0.2,4.7-0.6,6.4c-0.4,1.7-0.9,3.1-1.6,4.1c-0.7,1-1.4,1.8-2.3,2.2c-0.9,0.4-1.9,0.7-2.9,0.7
	c-0.8,0-1.6-0.1-2.5-0.4s-1.7-0.7-2.5-1.3c-0.8-0.6-1.4-1.4-1.9-2.4s-0.8-2.1-0.8-3.5c0-0.3,0-0.5,0-0.8s0.1-0.5,0.1-0.8l6.9-1.4
	v0.1c-1.1,0.5-1.9,1.2-2.4,1.9c-0.5,0.7-0.8,1.4-0.8,2.2c0,0.3,0.1,0.7,0.2,1.1c0.1,0.4,0.3,0.7,0.6,1s0.6,0.6,1,0.8
	c0.4,0.2,0.9,0.3,1.6,0.3c0.3,0,0.7,0,1-0.1s0.6-0.2,0.9-0.4c0.3-0.2,0.6-0.6,0.8-1c0.2-0.5,0.5-1.1,0.6-1.9
	c0.2-0.8,0.3-1.9,0.4-3.1c0.1-1.3,0.2-2.8,0.2-4.6c-1.3,1-2.6,1.5-3.9,1.5c-1.2,0-2.3-0.2-3.3-0.7s-1.9-1.1-2.6-1.9
	c-0.7-0.8-1.3-1.8-1.7-3.1c-0.4-1.2-0.6-2.6-0.6-4.2c0-1.2,0-2.2,0-3s0-1.6,0-2.3c0-0.7,0-1.4,0-2s0-1.3,0-2s0-1.4-0.1-2.3
	c0-0.8-0.1-1.8-0.1-3c-0.1-0.7-0.3-1.3-0.7-1.8s-1-0.9-1.9-1.1v-0.1h9.5v0.1c-0.9,0.2-1.5,0.6-1.9,1.1s-0.6,1.2-0.6,1.9
	c0,1.3-0.1,2.6-0.1,3.9s0,2.5,0,3.7s0,2.2,0,3.2s0,1.8,0,2.5c0,2.7,0.4,4.7,1.2,6.1s2,2.1,3.5,2.1c0.4,0,0.9-0.1,1.5-0.3
	c0.5-0.2,1.1-0.5,1.7-0.9v-0.4L63,79.4z"/>
<path d="M78,77c0.7-2.5,1.2-4.6,1.6-6.2s0.7-2.8,0.9-3.5c-0.9,0-1.8,0.1-2.7,0.2S76,67.7,75.2,68c-0.8,0.2-1.4,0.6-1.9,1
	s-0.7,1.1-0.7,1.8h-0.2c0-0.6,0-1.2,0-1.9c0-0.7,0-1.4,0.1-2c0-0.7,0-1.5,0.1-2.2h16v0.2c-1.2,0.4-2.1,1-2.7,1.7
	c-0.7,0.8-1.2,1.7-1.6,2.7s-0.7,2.1-1,3.3c-0.3,1.2-0.6,2.4-0.9,3.7c-0.4,1.8-0.8,3.5-1.2,5.3c-0.4,1.8-0.9,3.7-1.4,5.8
	c-0.1,0.2-0.2,0.5-0.3,0.7c-0.1,0.2-0.1,0.5-0.1,0.7c0.9,0,1.8-0.1,2.7-0.2c0.9-0.1,1.8-0.2,2.5-0.5c0.8-0.2,1.4-0.6,1.9-1
	s0.8-1,0.8-1.8h0.2c-0.1,0.6-0.1,1.2-0.2,1.9c-0.1,0.7-0.1,1.4-0.2,2c-0.1,0.7-0.2,1.5-0.3,2.2H71.7v-0.1c0.9-0.3,1.7-0.8,2.3-1.5
	c0.6-0.7,1.1-1.5,1.4-2.5c0.4-1.6,0.9-3.4,1.3-5.1S77.6,78.6,78,77z"/>
<path d="M90.4,77.9c0-2.3,0.2-4.3,0.7-6.1c0.4-1.8,1-3.2,1.8-4.5c0.8-1.2,1.6-2.1,2.7-2.7c1-0.6,2.1-0.9,3.3-0.9
	c1.1,0,2.2,0.3,3.2,0.9c1,0.6,1.9,1.5,2.6,2.7s1.3,2.7,1.8,4.5c0.4,1.8,0.7,3.8,0.7,6.1c0,2.3-0.2,4.3-0.7,6.1
	c-0.4,1.8-1,3.3-1.8,4.5s-1.6,2.1-2.6,2.8c-1,0.6-2.1,0.9-3.2,0.9c-1.2,0-2.3-0.3-3.3-0.9s-1.9-1.6-2.7-2.8s-1.3-2.7-1.8-4.5
	C90.6,82.2,90.4,80.2,90.4,77.9z M94.5,77.9c0,3.7,0.4,6.6,1.1,8.5s1.8,2.9,3.1,2.9c1.4,0,2.4-1,3.1-2.9s1-4.7,1-8.5s-0.3-6.6-1-8.4
	c-0.7-1.9-1.7-2.8-3.1-2.8c-1.3,0-2.4,0.9-3.1,2.8S94.5,74.2,94.5,77.9z"/>
<path d="M127.5,74.8c0,1.3,0,2.5,0,3.6s0,2.2,0,3.2s0,2.1,0.1,3.2s0.1,2.3,0.1,3.5c0.1,0.7,0.3,1.3,0.7,1.8s1.1,0.9,2,1.1v0.1h-8.8
	v-0.1c0.7-0.2,1.2-0.6,1.5-1.1s0.5-1.2,0.6-1.9c0.1-1.8,0.1-3.3,0.1-4.7c0-1.4,0-2.6,0-3.6c0-2,0-3.8-0.1-5.4c0-1.6-0.1-3-0.3-4.2
	c-0.2-1.2-0.5-2.1-0.8-2.7c-0.4-0.6-0.9-1-1.5-1s-1.2,0.2-1.7,0.5c-0.5,0.4-1,0.9-1.4,1.5s-0.7,1.4-1,2.3c-0.2,0.9-0.4,1.9-0.4,3
	v3.6c0,1.8,0,3.6,0.1,5.4c0,1.8,0.1,3.6,0.2,5.4c0.1,0.7,0.2,1.3,0.6,1.8c0.3,0.5,0.8,0.9,1.4,1.1v0.1h-9v-0.1
	c0.9-0.2,1.6-0.6,2-1.1s0.6-1.2,0.7-1.9c0.1-1.8,0.2-3.6,0.2-5.2c0.1-1.6,0.1-3.2,0.1-4.8c0-2.1,0-3.9-0.1-5.3
	c0-1.4-0.2-2.5-0.4-3.4s-0.7-1.4-1.2-1.8s-1.3-0.5-2.4-0.5v-0.1l7.6-3.3c-0.2,0.5-0.2,1.1-0.3,1.7c0,0.7,0,1.3,0,2
	c0.4-0.8,0.8-1.4,1.2-1.9c0.4-0.5,0.9-0.9,1.4-1.1c0.5-0.3,0.9-0.5,1.4-0.6s0.9-0.2,1.3-0.2c1.9,0,3.4,0.9,4.4,2.8
	C127,68.4,127.5,71.2,127.5,74.8z"/>
<path d="M142.9,81.9l6,0.6c0,1.7-0.2,3.1-0.7,4.3s-1.1,2.2-1.8,3s-1.5,1.4-2.4,1.8s-1.7,0.6-2.6,0.6c-1.2,0-2.4-0.3-3.4-0.9
	c-1.1-0.6-2-1.6-2.8-2.8c-0.8-1.2-1.4-2.7-1.8-4.5c-0.4-1.8-0.7-3.8-0.7-6.1c0-2.3,0.2-4.3,0.7-6.1c0.4-1.8,1.1-3.2,1.8-4.5
	c0.8-1.2,1.7-2.1,2.8-2.8c1.1-0.6,2.2-0.9,3.4-0.9c1,0,1.9,0.3,2.8,0.8c0.9,0.5,1.6,1.4,2.2,2.4c0.6,1.1,1.2,2.4,1.6,4
	c0.4,1.6,0.6,3.4,0.7,5.5L137,80.5c0.2,3.1,0.8,5.3,1.6,6.7s1.9,2.1,3.2,2.1c0.6,0,1.1-0.1,1.5-0.3c0.4-0.2,0.8-0.5,1-0.9
	c0.3-0.4,0.5-0.8,0.6-1.3s0.2-1,0.2-1.5c0-0.6-0.2-1.2-0.6-1.8C144.1,82.9,143.5,82.4,142.9,81.9L142.9,81.9z M136.9,78
	c0.5-0.2,1.2-0.5,2-0.8s1.8-0.8,3-1.3c0.7-0.3,1.3-0.6,1.8-0.9s0.9-0.6,1.3-0.8c-0.2-2.6-0.6-4.5-1.2-5.7c-0.6-1.2-1.4-1.8-2.4-1.8
	c-1.4,0-2.5,0.9-3.3,2.8S136.9,74.2,136.9,78L136.9,78L136.9,78z"/>
<g>
	<polygon points="98.1,59.5 120.4,0 97.9,23.9 88.7,59.5 	"/>
	<polygon points="106.8,59.5 125.8,19.4 126.1,3.5 123.3,0.9 100.9,59.5 	"/>
	<polygon points="125.8,22.8 108.4,59.5 110.9,59.5 125.6,30.7 	"/>
	<polygon points="84.8,59.5 91.6,29.5 86.8,24.7 61.9,24.7 57.1,29.5 63.8,59.5 	"/>
	<polygon points="40.3,59.5 22.9,22.8 23.1,30.7 37.8,59.5 	"/>
	<polygon points="60,59.5 50.8,24 28.3,0.1 50.6,59.5 	"/>
	<polygon points="47.7,59.5 25.3,1 22.5,3.6 22.8,19.4 41.8,59.5 	"/>
</g>
</svg>
