<?xml version="1.0" encoding="utf-8"?>
<!-- Generator: Adobe Illustrator 24.0.2, SVG Export Plug-In . SVG Version: 6.00 Build 0)  -->
<svg version="1.1" id="Layer_1" xmlns="http://www.w3.org/2000/svg" xmlns:xlink="http://www.w3.org/1999/xlink" x="0px" y="0px"
	 viewBox="0 0 70 70" style="enable-background:new 0 0 70 70;" xml:space="preserve">
<style type="text/css">
	.st0{fill:#FFFFFF;}
</style>
<g>
	<g>
		<circle cx="48.1" cy="35" r="3.6"/>
	</g>
	<g>
		<path d="M48.1,37.6c-0.7,0-1.4-0.3-1.9-0.8c-1-1-1-2.7,0-3.7c0.5-0.5,1.2-0.8,1.9-0.8s1.4,0.3,1.9,0.8c1,1,1,2.7,0,3.7
			C49.5,37.4,48.8,37.6,48.1,37.6z"/>
		<path class="st0" d="M48.1,32.9c0.6,0,1.1,0.2,1.5,0.6c0.4,0.4,0.6,0.9,0.6,1.5s-0.2,1.1-0.6,1.5c-0.4,0.4-0.9,0.6-1.5,0.6
			c-0.6,0-1.1-0.2-1.5-0.6c-0.8-0.8-0.8-2.2,0-3C47,33.1,47.5,32.9,48.1,32.9 M48.1,31.9c-0.8,0-1.6,0.3-2.2,0.9
			c-1.2,1.2-1.2,3.2,0,4.5c0.6,0.6,1.4,0.9,2.2,0.9c0.8,0,1.6-0.3,2.2-0.9c1.2-1.2,1.2-3.2,0-4.5C49.7,32.2,48.9,31.9,48.1,31.9
			L48.1,31.9z"/>
	</g>
	<g>
		<circle cx="35" cy="48.1" r="3.6"/>
	</g>
	<g>
		<path d="M35,50.8c-0.7,0-1.4-0.3-1.9-0.8c-1-1-1-2.7,0-3.7c0.5-0.5,1.2-0.8,1.9-0.8c0.7,0,1.4,0.3,1.9,0.8c1,1,1,2.7,0,3.7
			C36.4,50.5,35.7,50.8,35,50.8z"/>
		<path class="st0" d="M35,46c0.6,0,1.1,0.2,1.5,0.6c0.8,0.8,0.8,2.2,0,3c-0.4,0.4-0.9,0.6-1.5,0.6c-0.6,0-1.1-0.2-1.5-0.6
			c-0.8-0.8-0.8-2.2,0-3C33.9,46.2,34.4,46,35,46 M35,45c-0.8,0-1.6,0.3-2.2,0.9c-1.2,1.2-1.2,3.2,0,4.5c0.6,0.6,1.4,0.9,2.2,0.9
			s1.6-0.3,2.2-0.9c1.2-1.2,1.2-3.2,0-4.5C36.6,45.3,35.8,45,35,45L35,45z"/>
	</g>
	<g>
		<circle cx="21.9" cy="35" r="3.6"/>
	</g>
	<g>
		<path d="M21.9,37.6c-0.7,0-1.4-0.3-1.9-0.8c-1-1-1-2.7,0-3.7c0.5-0.5,1.2-0.8,1.9-0.8c0.7,0,1.4,0.3,1.9,0.8c1,1,1,2.7,0,3.7
			C23.3,37.4,22.6,37.6,21.9,37.6z"/>
		<path class="st0" d="M21.9,32.9c0.6,0,1.1,0.2,1.5,0.6c0.4,0.4,0.6,0.9,0.6,1.5s-0.2,1.1-0.6,1.5c-0.4,0.4-0.9,0.6-1.5,0.6
			s-1.1-0.2-1.5-0.6c-0.4-0.4-0.6-0.9-0.6-1.5s0.2-1.1,0.6-1.5C20.8,33.1,21.3,32.9,21.9,32.9 M21.9,31.9c-0.8,0-1.6,0.3-2.2,0.9
			c-1.2,1.2-1.2,3.2,0,4.5c0.6,0.6,1.4,0.9,2.2,0.9s1.6-0.3,2.2-0.9c1.2-1.2,1.2-3.2,0-4.5C23.5,32.2,22.7,31.9,21.9,31.9L21.9,31.9
			z"/>
	</g>
	<g>
		<circle cx="35" cy="21.9" r="3.6"/>
	</g>
	<g>
		<path d="M35,24.5c-0.7,0-1.4-0.3-1.9-0.8s-0.8-1.2-0.8-1.9c0-0.7,0.3-1.4,0.8-1.9s1.2-0.8,1.9-0.8c0.7,0,1.4,0.3,1.9,0.8
			c1,1,1,2.7,0,3.7C36.4,24.3,35.7,24.5,35,24.5z"/>
		<path class="st0" d="M35,19.7c0.6,0,1.1,0.2,1.5,0.6c0.4,0.4,0.6,0.9,0.6,1.5c0,0.6-0.2,1.1-0.6,1.5C36.1,23.8,35.6,24,35,24
			c-0.6,0-1.1-0.2-1.5-0.6c-0.4-0.4-0.6-0.9-0.6-1.5c0-0.6,0.2-1.1,0.6-1.5C33.9,20,34.4,19.7,35,19.7 M35,18.7
			c-0.8,0-1.6,0.3-2.2,0.9c-1.2,1.2-1.2,3.2,0,4.5c0.6,0.6,1.4,0.9,2.2,0.9s1.6-0.3,2.2-0.9c1.2-1.2,1.2-3.2,0-4.5
			C36.6,19.1,35.8,18.7,35,18.7L35,18.7z"/>
	</g>
</g>
<g>
	<g>
		<rect x="51.8" y="5" transform="matrix(0.7071 -0.7071 0.7071 0.7071 13.7651 46.7067)" width="23" height="3.5"/>
	</g>
	<g>
		<rect x="5" y="-4.7" transform="matrix(0.7071 -0.7071 0.7071 0.7071 -2.7907 6.7374)" width="3.5" height="23"/>
	</g>
	<g>
		<rect x="61.5" y="51.8" transform="matrix(0.7071 -0.7071 0.7071 0.7071 -26.2042 63.2626)" width="3.5" height="23"/>
	</g>
	<g>
		<rect x="-4.7" y="61.5" transform="matrix(0.7071 -0.7071 0.7071 0.7071 -42.76 23.2933)" width="23" height="3.5"/>
	</g>
</g>
<g>
	<g>
		<rect x="39.1" y="20.9" transform="matrix(0.7071 -0.7071 0.7071 0.7071 -1.0822 40.7276)" width="19" height="1.6"/>
	</g>
	<g>
		<rect x="20.6" y="11.3" transform="matrix(0.7071 -0.7071 0.7071 0.7071 -8.8802 21.4387)" width="1.6" height="20.4"/>
	</g>
	<g>
		<rect x="48.2" y="39.4" transform="matrix(0.7071 -0.7071 0.7071 0.7071 -20.2818 48.9645)" width="1.6" height="19.2"/>
	</g>
	<g>
		<rect x="12.2" y="47.8" transform="matrix(0.7071 -0.7071 0.7071 0.7071 -28.0335 29.564)" width="19" height="1.6"/>
	</g>
</g>
<g>
	<g>
		<rect x="36.6" y="30" transform="matrix(0.7071 -0.7071 0.7071 0.7071 -9.6867 37.1635)" width="6.9" height="0.6"/>
	</g>
	<g>
		<rect x="29.8" y="26.4" transform="matrix(0.7071 -0.7071 0.7071 0.7071 -12.467 30.0979)" width="0.6" height="7.4"/>
	</g>
	<g>
		<rect x="39.8" y="36.6" transform="matrix(0.7071 -0.7071 0.7071 0.7071 -16.5884 40.0479)" width="0.6" height="6.9"/>
	</g>
	<g>
		<rect x="26.8" y="39.7" transform="matrix(0.7071 -0.7071 0.7071 0.7071 -19.429 33.1281)" width="6.9" height="0.6"/>
	</g>
</g>
</svg>
