<?xml version="1.0" encoding="utf-8"?>
<!-- Generator: Adobe Illustrator 24.0.2, SVG Export Plug-In . SVG Version: 6.00 Build 0)  -->
<svg version="1.1" id="Layer_1" xmlns="http://www.w3.org/2000/svg" xmlns:xlink="http://www.w3.org/1999/xlink" x="0px" y="0px"
	 viewBox="0 0 150 114.3" style="enable-background:new 0 0 150 114.3;" xml:space="preserve">
<style type="text/css">
	.st0{fill:#FF0000;}
	.st1{fill:#FFFFFF;}
</style>
<g transform="matrix(5.715038, 0, 0, 5.715038, 409.288757, 277.787231)">
	<g>
		<path class="st0" d="M-45.9-45.5c-0.3-1.2-1.2-2.2-2.3-2.5c-2-0.6-10.3-0.6-10.3-0.6s-8.2,0-10.3,0.6c-1.1,0.3-2,1.3-2.3,2.5
			c-0.5,2.2-0.5,6.9-0.5,6.9s0,4.6,0.5,6.9c0.3,1.2,1.2,2.2,2.3,2.5c2,0.6,10.3,0.6,10.3,0.6s8.2,0,10.3-0.6c1.1-0.3,2-1.3,2.3-2.5
			c0.5-2.2,0.5-6.9,0.5-6.9S-45.4-43.3-45.9-45.5z"/>
		<path class="st1" d="M-61.1-34.3l6.8-4.3l-6.8-4.3V-34.3z"/>
	</g>
</g>
</svg>
