<?xml version="1.0" encoding="utf-8"?>
<!-- Generator: Adobe Illustrator 24.0.2, SVG Export Plug-In . SVG Version: 6.00 Build 0)  -->
<svg version="1.1" id="Layer_1" xmlns="http://www.w3.org/2000/svg" xmlns:xlink="http://www.w3.org/1999/xlink" x="0px" y="0px"
	 viewBox="0 0 31.9 32" style="enable-background:new 0 0 31.9 32;" xml:space="preserve">
<style type="text/css">
	.st0{fill:#828282;}
	.st1{fill:#FFFFFF;}
</style>
<path class="st0" d="M15.9,28.7c-4.4,0-8.1-1.6-11.3-3.2c-0.3-0.1-0.6-0.4-0.7-0.7l-4.8-9.5C-1,15.1-1,14.9-1.1,14.7l-0.4-8.2
	C-1.5,6-1.3,5.6-1,5.3l2.2-2c0.6-0.5,1.5-0.5,2.1,0l7.1,6.5l1.7,0.6h7.4l1.7-0.6l7.1-6.5c0.6-0.5,1.5-0.5,2.1,0l2.3,2
	c0.4,0.3,0.6,0.8,0.5,1.3l-0.4,8.2c0,0.2-0.1,0.4-0.2,0.6l-4.8,9.5c-0.2,0.3-0.4,0.6-0.7,0.7C24,27,20.3,28.7,15.9,28.7z M14.8,24.9
	c0.6,0,1.4,0,2,0l0.1-0.1l2.2-10l-0.3-0.3h-5.9l-0.3,0.3L14.8,24.9L14.8,24.9z M6.7,12.4l2.2,5.8l-1.3-4.9L6.7,12.4z M24.1,13.4
	L22.9,18l2.1-5.6L24.1,13.4z"/>
<path d="M15.9,27.8c-4.2,0-7.8-1.6-10.9-3.1c-0.1-0.1-0.3-0.2-0.3-0.3l-4.8-9.5c0-0.1-0.1-0.2-0.1-0.3l-0.4-8.2
	c0-0.2,0.1-0.4,0.2-0.6l2.2-2c0.3-0.2,0.7-0.2,1,0l7.2,6.6l2,0.7h7.7l2-0.7l7.2-6.6c0.3-0.2,0.7-0.2,0.9,0l2.3,2
	c0.2,0.1,0.3,0.4,0.2,0.6L32,14.6c0,0.1,0,0.2-0.1,0.3l-4.8,9.5c-0.1,0.1-0.2,0.3-0.3,0.3C23.7,26.2,20.1,27.8,15.9,27.8z
	 M14.4,25.7c0.5,0.1,0.9,0.1,1.4,0.1s0.9,0,1.4-0.1l0.5-0.5L20,14.5l-0.9-0.9h-6.6l-0.9,0.9L14,25.2L14.4,25.7z M10.4,24.9
	c0.2,0.1,0.4,0.1,0.6,0.2c0.2,0,0.3,0.1,0.5,0.1L8.4,13l-4-4.2L10.4,24.9z M23.3,13l-3.2,12.2c0.3-0.1,0.7-0.2,1.1-0.3l0,0l6-16.1
	L23.3,13z M30.2,7.5L24,23.9c0,0,0.1,0,0.1-0.1l6-12.7L30.2,7.5z M7.6,23.8C7.6,23.9,7.7,23.9,7.6,23.8l-6.1-16l0.1,3.3L7.6,23.8z
	 M20.1,12.6l1.2,1.2c0.2,0.2,0.2,0.4,0.2,0.6l0.5-2c0-0.1,0.1-0.2,0.2-0.3l0.9-1l-0.5,0.5c-0.1,0.1-0.2,0.1-0.2,0.1L20.1,12.6z
	 M8.6,11.2l0.9,1c0.1,0.1,0.1,0.2,0.2,0.3l0.4,1.7c0-0.1,0.1-0.2,0.2-0.3l1.3-1.3l-2.2-0.8c-0.1,0-0.2-0.1-0.2-0.1L8.6,11.2z"/>
<path class="st1" d="M32,4.5l-2.3-2c-0.1-0.1-0.4-0.1-0.5,0L22,9.2L19.8,10H12L9.8,9.2L2.6,2.5c-0.1-0.1-0.4-0.1-0.5,0l-2.2,2
	c-0.1,0.1-0.1,0.2-0.1,0.3L0.2,13c0,0.1,0,0.1,0,0.2L5,22.7c0,0.1,0.1,0.1,0.2,0.2c3,1.5,6.6,3,10.8,3c4.1,0,7.7-1.6,10.8-3
	c0.1,0,0.1-0.1,0.2-0.2l4.8-9.5c0,0,0-0.1,0-0.2l0.4-8.2C32.1,4.7,32.1,4.6,32,4.5z M30.4,12.4v0.5l-3.2,6.2L30.4,12.4z M2.7,15.3
	l-1.3-2.5v-0.2L2.7,15.3z M8.7,11.2L12,24c-0.3-0.1-0.7-0.2-1-0.3c-0.3-0.1-0.5-0.1-0.8-0.2L3.6,5.7L8.7,11.2z M8.3,22.9
	c-0.3-0.2-0.7-0.3-0.9-0.4L1.3,9.6L1.2,5.3L1.5,5L8.3,22.9z M13.7,23.8l-2.4-11l1.1-1.1h6.9l1.1,1.1l-2.4,11l-0.6,0.6
	c-0.5,0.1-1,0.1-1.5,0.1s-1,0-1.5-0.1L13.7,23.8z M28.2,5.7l-6.7,17.8l-0.2,0.1c-0.6,0.2-1.1,0.4-1.6,0.5L23,11.2L28.2,5.7z
	 M30.6,5.3l-0.1,4.3l-6.1,12.9c-0.2,0.1-0.5,0.2-0.8,0.3c-0.1,0-0.1,0-0.2,0.1L30.2,5L30.6,5.3z"/>
</svg>
