<?xml version="1.0" encoding="utf-8"?>
<!-- Generator: Adobe Illustrator 24.0.2, SVG Export Plug-In . SVG Version: 6.00 Build 0)  -->
<svg version="1.1" id="Layer_1" xmlns="http://www.w3.org/2000/svg" xmlns:xlink="http://www.w3.org/1999/xlink" x="0px" y="0px"
	 viewBox="0 0 71.8 71.8" style="enable-background:new 0 0 71.8 71.8;" xml:space="preserve">
<style type="text/css">
	.st0{fill:#FFFFFF;}
</style>
<path d="M35.9,0.9c-19.3,0-35,15.7-35,35s15.7,35,35,35s35-15.7,35-35S55.2,0.9,35.9,0.9z M16.6,51.7L8.8,36.3l-0.3-4.1l9.2,19.5
	H16.6z M18.5,51.7l-10-21.4L8.3,22l1.6-1.4l11.9,31.1H18.5z M23.4,51.7L11.5,20.1l11.9,12.7l4.9,18.9C28.3,51.7,23.4,51.7,23.4,51.7
	z M30.4,51.7l-3.8-16l2.7-2.7h13.3l2.4,2.7l-3.5,16H30.4z M43.7,51.7l4.9-18.9l11.9-12.7L48.6,51.7H43.7z M63.2,36.3l-7.8,15.4H54
	l9.5-19.5L63.2,36.3z M53.2,51.7h-3l11.9-31.1l1.4,1.4v8.4L53.2,51.7z"/>
<polygon class="st0" points="16.6,51.7 8.8,36.3 8.5,32.2 17.7,51.7 "/>
<polygon class="st0" points="18.5,51.7 8.5,30.3 8.3,22 9.9,20.6 21.8,51.7 "/>
<polygon class="st0" points="23.4,51.7 11.5,20.1 23.4,32.8 28.3,51.7 "/>
<polygon class="st0" points="30.4,51.7 26.6,35.7 29.3,33 42.6,33 45,35.7 41.5,51.7 "/>
<polygon class="st0" points="43.7,51.7 48.6,32.8 60.5,20.1 48.6,51.7 "/>
<polygon class="st0" points="63.2,36.3 55.4,51.7 54,51.7 63.5,32.2 "/>
<polygon class="st0" points="53.2,51.7 50.2,51.7 62.1,20.6 63.5,22 63.5,30.4 "/>
</svg>
