<?xml version="1.0" encoding="utf-8"?>
<!-- Generator: Adobe Illustrator 24.0.2, SVG Export Plug-In . SVG Version: 6.00 Build 0)  -->
<svg version="1.1" id="Layer_1" xmlns="http://www.w3.org/2000/svg" xmlns:xlink="http://www.w3.org/1999/xlink" x="0px" y="0px"
	 viewBox="0 0 71.8 71.8" style="enable-background:new 0 0 71.8 71.8;" xml:space="preserve">
<style type="text/css">
	.st0{opacity:0.4;fill:#FFFFFF;}
</style>
<path class="st0" d="M35.9,2.9c18.2,0,33,14.8,33,33s-14.8,33-33,33s-33-14.8-33-33S17.7,2.9,35.9,2.9"/>
<g>
	<polygon points="48.6,51.7 60.5,20.1 48.6,32.8 43.7,51.7 	"/>
	<polygon points="53.2,51.7 63.4,30.4 63.4,22 62.1,20.6 50.2,51.7 	"/>
	<polygon points="63.4,32.2 54,51.7 55.3,51.7 63.2,36.3 	"/>
	<polygon points="41.5,51.7 45,35.8 42.6,33.1 29.4,33.1 26.6,35.8 30.4,51.7 	"/>
	<polygon points="17.7,51.7 8.5,32.2 8.8,36.3 16.6,51.7 	"/>
	<polygon points="28.3,51.7 23.4,32.8 11.5,20.1 23.4,51.7 	"/>
	<polygon points="21.8,51.7 9.9,20.6 8.3,22 8.5,30.4 18.5,51.7 	"/>
</g>
<path d="M35.9,2.9c18.2,0,33,14.8,33,33s-14.8,33-33,33s-33-14.8-33-33S17.7,2.9,35.9,2.9 M35.9,0.9c-19.3,0-35,15.7-35,35
	s15.7,35,35,35s35-15.7,35-35S55.2,0.9,35.9,0.9L35.9,0.9z"/>
</svg>
