<?xml version="1.0" encoding="utf-8"?>
<!-- Generator: Adobe Illustrator 24.0.2, SVG Export Plug-In . SVG Version: 6.00 Build 0)  -->
<svg version="1.1" id="Layer_1" xmlns="http://www.w3.org/2000/svg" xmlns:xlink="http://www.w3.org/1999/xlink" x="0px" y="0px"
	 viewBox="0 0 71.8 71.8" style="enable-background:new 0 0 71.8 71.8;" xml:space="preserve">
<path d="M35.9,0.9c-19.3,0-35,15.7-35,35s15.7,35,35,35c19.3,0,35-15.7,35-35S55.2,0.9,35.9,0.9z M16.6,51.7L8.8,36.3l-0.3-4.1
	l9.2,19.5H16.6z M18.5,51.7l-10-21.4L8.3,22l1.6-1.4l11.9,31.1H18.5z M23.4,51.7L11.5,20.1l11.9,12.7l4.9,18.9H23.4z M30.4,51.7
	l-3.8-16l2.7-2.7h13.3l2.4,2.7l-3.5,16H30.4z M43.7,51.7l4.9-18.9l11.9-12.7L48.6,51.7H43.7z M63.2,36.3l-7.8,15.4H54l9.5-19.5
	L63.2,36.3z M53.2,51.7h-3l11.9-31.1l1.4,1.4v8.4L53.2,51.7z"/>
</svg>
