<?xml version="1.0" encoding="utf-8"?>
<!-- Generator: Adobe Illustrator 24.0.2, SVG Export Plug-In . SVG Version: 6.00 Build 0)  -->
<svg version="1.1" id="Layer_1" xmlns="http://www.w3.org/2000/svg" xmlns:xlink="http://www.w3.org/1999/xlink" x="0px" y="0px"
	 viewBox="0 0 572.5 69.5" style="enable-background:new 0 0 572.5 69.5;" xml:space="preserve">
<style type="text/css">
	.st0{fill:#FFFFFF;}
</style>
<path class="st0" d="M-237.3,420.2"/>
<path class="st0" d="M144.2,208.1L144.2,208.1c-0.1,0-0.2,0-0.3,0c-0.1,0-0.2,0-0.3,0v0C67.3,208.4,78.6,277.6,0,277.6
	c39.6,0,248.3,0,288,0C209.4,277.6,220.7,208.4,144.2,208.1z"/>
<path class="st0" d="M1286.2-750.5H144.2C67.2-750.5,78.8-681,0-681c41.3,0,144.2,0,144.2,0h1141.9c0,0,102.9,0,144.2,0
	C1351.7-681,1363.2-750.5,1286.2-750.5z"/>
<path class="st0" d="M1137.2-648H144.2c-77,0-65.5,69.5-144.2,69.5c41.3,0,144.2,0,144.2,0h992.9c0,0,102.9,0,144.2,0
	C1202.7-578.5,1214.2-648,1137.2-648z"/>
<path class="st0" d="M1002.6-495.5H144.2C67.2-495.5,78.8-426,0-426c41.3,0,144.2,0,144.2,0h858.4c0,0,102.9,0,144.2,0
	C1068.1-426,1079.6-495.5,1002.6-495.5z"/>
<path class="st0" d="M853.6-390.6H144.2c-77,0-65.5,69.5-144.2,69.5c41.3,0,144.2,0,144.2,0h709.4c0,0,102.9,0,144.2,0
	C919.1-321.1,930.6-390.6,853.6-390.6z"/>
<path class="st0" d="M718.4-232.3H144.2c-77,0-65.5,69.5-144.2,69.5c41.3,0,144.2,0,144.2,0h574.2c0,0,102.9,0,144.2,0
	C783.9-162.8,795.4-232.3,718.4-232.3z"/>
<path class="st0" d="M569.4-119.7H144.2c-77,0-65.5,69.5-144.2,69.5c41.3,0,144.2,0,144.2,0h425.2c0,0,102.9,0,144.2,0
	C634.9-50.2,646.4-119.7,569.4-119.7z"/>
<path class="st0" d="M428.2,0h-284C67.2,0,78.8,69.5,0,69.5c41.3,0,144.2,0,144.2,0h284c0,0,102.9,0,144.2,0
	C493.7,69.5,505.2,0,428.2,0z"/>
<path class="st0" d="M279.2,101h-135c-77,0-65.5,69.5-144.2,69.5c41.3,0,144.2,0,144.2,0h135c0,0,102.9,0,144.2,0
	C344.7,170.5,356.2,101,279.2,101z"/>
</svg>
