<?xml version="1.0" encoding="utf-8"?>
<!-- Generator: Adobe Illustrator 24.0.2, SVG Export Plug-In . SVG Version: 6.00 Build 0)  -->
<svg version="1.1" id="Layer_1" xmlns="http://www.w3.org/2000/svg" xmlns:xlink="http://www.w3.org/1999/xlink" x="0px" y="0px"
	 viewBox="0 0 288 69.5" style="enable-background:new 0 0 288 69.5;" xml:space="preserve">
<style type="text/css">
	.st0{fill:#FFFFFF;}
</style>
<path class="st0" d="M-237.3,212.1"/>
<path class="st0" d="M144.2,0L144.2,0c-0.1,0-0.2,0-0.3,0s-0.2,0-0.3,0l0,0C67.3,0.3,78.6,69.5,0,69.5c39.6,0,248.3,0,288,0
	C209.4,69.5,220.7,0.3,144.2,0z"/>
<path class="st0" d="M1286.2-958.6h-1142c-77,0-65.5,69.5-144.2,69.5c41.3,0,144.2,0,144.2,0h1141.9c0,0,102.9,0,144.2,0
	C1351.7-889.1,1363.2-958.6,1286.2-958.6z"/>
<path class="st0" d="M1137.2-856.1h-993c-77,0-65.5,69.5-144.2,69.5c41.3,0,144.2,0,144.2,0h992.9c0,0,102.9,0,144.2,0
	C1202.7-786.6,1214.2-856.1,1137.2-856.1z"/>
<path class="st0" d="M1002.6-703.6H144.2c-77,0-65.5,69.5-144.2,69.5c41.3,0,144.2,0,144.2,0h858.4c0,0,102.9,0,144.2,0
	C1068.1-634.1,1079.6-703.6,1002.6-703.6z"/>
<path class="st0" d="M853.6-598.7H144.2c-77,0-65.5,69.5-144.2,69.5c41.3,0,144.2,0,144.2,0h709.4c0,0,102.9,0,144.2,0
	C919.1-529.2,930.6-598.7,853.6-598.7z"/>
</svg>
