<?xml version="1.0" encoding="utf-8"?>
<!-- Generator: Adobe Illustrator 24.0.2, SVG Export Plug-In . SVG Version: 6.00 Build 0)  -->
<svg version="1.1" id="Layer_1" xmlns="http://www.w3.org/2000/svg" xmlns:xlink="http://www.w3.org/1999/xlink" x="0px" y="0px"
	 viewBox="0 0 1428.9 69.5" style="enable-background:new 0 0 1428.9 69.5;" xml:space="preserve">
<style type="text/css">
	.st0{fill:#FFFFFF;}
</style>
<path class="st0" d="M-237.3,1189.8"/>
<path class="st0" d="M144.2,1047.2L144.2,1047.2c-0.1,0-0.2,0-0.3,0c-0.1,0-0.2,0-0.3,0v0c-76.4,0.3-65.2,69.5-143.7,69.5
	c39.6,0,248.3,0,288,0C209.4,1116.7,220.7,1047.5,144.2,1047.2z"/>
<path class="st0" d="M853.6,379H144.2c-77,0-65.5,69.5-144.2,69.5c41.3,0,144.2,0,144.2,0h709.4c0,0,102.9,0,144.2,0
	C919.1,448.5,930.6,379,853.6,379z"/>
<path class="st0" d="M1003.6,273.9H144.2c-77,0-65.5,69.5-144.2,69.5c41.3,0,144.2,0,144.2,0h859.4c0,0,102.9,0,144.2,0
	C1069.1,343.4,1080.6,273.9,1003.6,273.9z"/>
<path class="st0" d="M1138.6,99.4H144.2c-77,0-65.5,69.5-144.2,69.5c41.3,0,144.2,0,144.2,0h994.4c0,0,102.9,0,144.2,0
	C1204.1,168.9,1215.6,99.4,1138.6,99.4z"/>
<path class="st0" d="M1283.8,0H143.5C66.5,0,78,69.5-0.8,69.5c41.3,0,144.2,0,144.2,0h1140.4c0,0,102.9,0,144.2,0
	C1349.3,69.5,1360.8,0,1283.8,0z"/>
<path class="st0" d="M718.4,537.3H144.2c-77,0-65.5,69.5-144.2,69.5c41.3,0,144.2,0,144.2,0h574.2c0,0,102.9,0,144.2,0
	C783.9,606.8,795.4,537.3,718.4,537.3z"/>
<path class="st0" d="M569.4,649.9H144.2c-77,0-65.5,69.5-144.2,69.5c41.3,0,144.2,0,144.2,0h425.2c0,0,102.9,0,144.2,0
	C634.9,719.4,646.4,649.9,569.4,649.9z"/>
<path class="st0" d="M428.2,804.4h-284c-77,0-65.5,69.5-144.2,69.5c41.3,0,144.2,0,144.2,0h284c0,0,102.9,0,144.2,0
	C493.7,873.9,505.2,804.4,428.2,804.4z"/>
<path class="st0" d="M279.2,905.3h-135c-77,0-65.5,69.5-144.2,69.5c41.3,0,144.2,0,144.2,0h135c0,0,102.9,0,144.2,0
	C344.7,974.8,356.2,905.3,279.2,905.3z"/>
</svg>
