<?xml version="1.0" encoding="utf-8"?>
<!-- Generator: Adobe Illustrator 24.0.2, SVG Export Plug-In . SVG Version: 6.00 Build 0)  -->
<svg version="1.1" id="Layer_1" xmlns="http://www.w3.org/2000/svg" xmlns:xlink="http://www.w3.org/1999/xlink" x="0px" y="0px"
	 viewBox="0 0 1282.8 69.5" style="enable-background:new 0 0 1282.8 69.5;" xml:space="preserve">
<style type="text/css">
	.st0{fill:#FFFFFF;}
</style>
<path class="st0" d="M-237.3,1090.5"/>
<path class="st0" d="M144.2,947.9L144.2,947.9c-0.1,0-0.2,0-0.3,0c-0.1,0-0.2,0-0.3,0v0c-76.4,0.3-65.2,69.5-143.7,69.5
	c39.6,0,248.3,0,288,0C209.4,1017.4,220.7,948.2,144.2,947.9z"/>
<path class="st0" d="M853.6,279.7H144.2c-77,0-65.5,69.5-144.2,69.5c41.3,0,144.2,0,144.2,0h709.4c0,0,102.9,0,144.2,0
	C919.1,349.2,930.6,279.7,853.6,279.7z"/>
<path class="st0" d="M1003.6,174.6H144.2c-77,0-65.5,69.5-144.2,69.5c41.3,0,144.2,0,144.2,0h859.4c0,0,102.9,0,144.2,0
	C1069.1,244.1,1080.6,174.6,1003.6,174.6z"/>
<path class="st0" d="M1138.6,0H144.2C67.2,0,78.8,69.5,0,69.5c41.3,0,144.2,0,144.2,0h994.4c0,0,102.9,0,144.2,0
	C1204.1,69.5,1215.6,0,1138.6,0z"/>
<path class="st0" d="M1283.8-272.5H143.5C66.5-272.5,78-203-0.8-203c41.3,0,144.2,0,144.2,0h1140.4c0,0,102.9,0,144.2,0
	C1349.3-203,1360.8-272.5,1283.8-272.5z"/>
<path class="st0" d="M718.4,437.9H144.2c-77,0-65.5,69.5-144.2,69.5c41.3,0,144.2,0,144.2,0h574.2c0,0,102.9,0,144.2,0
	C783.9,507.4,795.4,437.9,718.4,437.9z"/>
<path class="st0" d="M569.4,550.6H144.2c-77,0-65.5,69.5-144.2,69.5c41.3,0,144.2,0,144.2,0h425.2c0,0,102.9,0,144.2,0
	C634.9,620.1,646.4,550.6,569.4,550.6z"/>
<path class="st0" d="M428.2,705h-284c-77,0-65.5,69.5-144.2,69.5c41.3,0,144.2,0,144.2,0h284c0,0,102.9,0,144.2,0
	C493.7,774.5,505.2,705,428.2,705z"/>
<path class="st0" d="M279.2,806h-135c-77,0-65.5,69.5-144.2,69.5c41.3,0,144.2,0,144.2,0h135c0,0,102.9,0,144.2,0
	C344.7,875.5,356.2,806,279.2,806z"/>
</svg>
