<?xml version="1.0" encoding="utf-8"?>
<!-- Generator: Adobe Illustrator 24.0.2, SVG Export Plug-In . SVG Version: 6.00 Build 0)  -->
<svg version="1.1" id="Layer_1" xmlns="http://www.w3.org/2000/svg" xmlns:xlink="http://www.w3.org/1999/xlink" x="0px" y="0px"
	 viewBox="0 0 423.5 69.5" style="enable-background:new 0 0 423.5 69.5;" xml:space="preserve">
<style type="text/css">
	.st0{fill:#FFFFFF;}
</style>
<path class="st0" d="M-237.3,319.2"/>
<path class="st0" d="M144.2,107.1L144.2,107.1c-0.1,0-0.2,0-0.3,0c-0.1,0-0.2,0-0.3,0v0C67.3,107.4,78.6,176.6,0,176.6
	c39.6,0,248.3,0,288,0C209.4,176.6,220.7,107.4,144.2,107.1z"/>
<path class="st0" d="M1286.2-851.5H144.2C67.2-851.5,78.8-782,0-782c41.3,0,144.2,0,144.2,0h1141.9c0,0,102.9,0,144.2,0
	C1351.7-782,1363.2-851.5,1286.2-851.5z"/>
<path class="st0" d="M1137.2-749H144.2c-77,0-65.5,69.5-144.2,69.5c41.3,0,144.2,0,144.2,0h992.9c0,0,102.9,0,144.2,0
	C1202.7-679.5,1214.2-749,1137.2-749z"/>
<path class="st0" d="M1002.6-596.5H144.2C67.2-596.5,78.8-527,0-527c41.3,0,144.2,0,144.2,0h858.4c0,0,102.9,0,144.2,0
	C1068.1-527,1079.6-596.5,1002.6-596.5z"/>
<path class="st0" d="M853.6-491.6H144.2c-77,0-65.5,69.5-144.2,69.5c41.3,0,144.2,0,144.2,0h709.4c0,0,102.9,0,144.2,0
	C919.1-422.1,930.6-491.6,853.6-491.6z"/>
<path class="st0" d="M718.4-333.3H144.2c-77,0-65.5,69.5-144.2,69.5c41.3,0,144.2,0,144.2,0h574.2c0,0,102.9,0,144.2,0
	C783.9-263.8,795.4-333.3,718.4-333.3z"/>
<path class="st0" d="M569.4-220.7H144.2c-77,0-65.5,69.5-144.2,69.5c41.3,0,144.2,0,144.2,0h425.2c0,0,102.9,0,144.2,0
	C634.9-151.2,646.4-220.7,569.4-220.7z"/>
<path class="st0" d="M428.2-101h-284C67.2-101,78.8-31.5,0-31.5c41.3,0,144.2,0,144.2,0h284c0,0,102.9,0,144.2,0
	C493.7-31.5,505.2-101,428.2-101z"/>
<path class="st0" d="M279.2,0h-135C67.2,0,78.8,69.5,0,69.5c41.3,0,144.2,0,144.2,0h135c0,0,102.9,0,144.2,0
	C344.7,69.5,356.2,0,279.2,0z"/>
</svg>
