<?xml version="1.0" encoding="utf-8"?>
<!-- Generator: Adobe Illustrator 24.0.2, SVG Export Plug-In . SVG Version: 6.00 Build 0)  -->
<svg version="1.1" id="Layer_1" xmlns="http://www.w3.org/2000/svg" xmlns:xlink="http://www.w3.org/1999/xlink" x="0px" y="0px"
	 viewBox="0 0 1147.8 69.5" style="enable-background:new 0 0 1147.8 69.5;" xml:space="preserve">
<style type="text/css">
	.st0{fill:#FFFFFF;}
</style>
<path class="st0" d="M-237.3,915.9"/>
<path class="st0" d="M144.2,773.3L144.2,773.3c-0.1,0-0.2,0-0.3,0c-0.1,0-0.2,0-0.3,0v0C67.3,773.6,78.6,842.8,0,842.8
	c39.6,0,248.3,0,288,0C209.4,842.8,220.7,773.6,144.2,773.3z"/>
<path class="st0" d="M853.6,105.1H144.2c-77,0-65.5,69.5-144.2,69.5c41.3,0,144.2,0,144.2,0h709.4c0,0,102.9,0,144.2,0
	C919.1,174.6,930.6,105.1,853.6,105.1z"/>
<path class="st0" d="M1003.6,0H144.2C67.2,0,78.8,69.5,0,69.5c41.3,0,144.2,0,144.2,0h859.4c0,0,102.9,0,144.2,0
	C1069.1,69.5,1080.6,0,1003.6,0z"/>
<path class="st0" d="M1138.6-174.6H144.2c-77,0-65.5,69.5-144.2,69.5c41.3,0,144.2,0,144.2,0h994.4c0,0,102.9,0,144.2,0
	C1204.1-105.1,1215.6-174.6,1138.6-174.6z"/>
<path class="st0" d="M1283.8-447.1H143.5c-77,0-65.5,69.5-144.2,69.5c41.3,0,144.2,0,144.2,0h1140.4c0,0,102.9,0,144.2,0
	C1349.3-377.6,1360.8-447.1,1283.8-447.1z"/>
<path class="st0" d="M718.4,263.3H144.2c-77,0-65.5,69.5-144.2,69.5c41.3,0,144.2,0,144.2,0h574.2c0,0,102.9,0,144.2,0
	C783.9,332.8,795.4,263.3,718.4,263.3z"/>
<path class="st0" d="M569.4,376H144.2c-77,0-65.5,69.5-144.2,69.5c41.3,0,144.2,0,144.2,0h425.2c0,0,102.9,0,144.2,0
	C634.9,445.5,646.4,376,569.4,376z"/>
<path class="st0" d="M428.2,530.4h-284c-77,0-65.5,69.5-144.2,69.5c41.3,0,144.2,0,144.2,0h284c0,0,102.9,0,144.2,0
	C493.7,599.9,505.2,530.4,428.2,530.4z"/>
<path class="st0" d="M279.2,631.4h-135c-77,0-65.5,69.5-144.2,69.5c41.3,0,144.2,0,144.2,0h135c0,0,102.9,0,144.2,0
	C344.7,700.9,356.2,631.4,279.2,631.4z"/>
</svg>
