<?xml version="1.0" encoding="utf-8"?>
<!-- Generator: Adobe Illustrator 24.0.2, SVG Export Plug-In . SVG Version: 6.00 Build 0)  -->
<svg version="1.1" id="Layer_1" xmlns="http://www.w3.org/2000/svg" xmlns:xlink="http://www.w3.org/1999/xlink" x="0px" y="0px"
	 viewBox="0 0 862.6 69.5" style="enable-background:new 0 0 862.6 69.5;" xml:space="preserve">
<style type="text/css">
	.st0{fill:#FFFFFF;}
</style>
<path class="st0" d="M-237.3,652.5"/>
<path class="st0" d="M144.2,440.4L144.2,440.4c-0.1,0-0.2,0-0.3,0c-0.1,0-0.2,0-0.3,0v0C67.3,440.7,78.6,509.9,0,509.9
	c39.6,0,248.3,0,288,0C209.4,509.9,220.7,440.7,144.2,440.4z"/>
<path class="st0" d="M1286.2-518.2H144.2c-77,0-65.5,69.5-144.2,69.5c41.3,0,144.2,0,144.2,0h1141.9c0,0,102.9,0,144.2,0
	C1351.7-448.7,1363.2-518.2,1286.2-518.2z"/>
<path class="st0" d="M1137.2-415.7H144.2c-77,0-65.5,69.5-144.2,69.5c41.3,0,144.2,0,144.2,0h992.9c0,0,102.9,0,144.2,0
	C1202.7-346.2,1214.2-415.7,1137.2-415.7z"/>
<path class="st0" d="M1002.6-263.2H144.2c-77,0-65.5,69.5-144.2,69.5c41.3,0,144.2,0,144.2,0h858.4c0,0,102.9,0,144.2,0
	C1068.1-193.7,1079.6-263.2,1002.6-263.2z"/>
<path class="st0" d="M853.6-158.3H144.2c-77,0-65.5,69.5-144.2,69.5c41.3,0,144.2,0,144.2,0h709.4c0,0,102.9,0,144.2,0
	C919.1-88.8,930.6-158.3,853.6-158.3z"/>
<path class="st0" d="M718.4,0H144.2C67.2,0,78.8,69.5,0,69.5c41.3,0,144.2,0,144.2,0h574.2c0,0,102.9,0,144.2,0
	C783.9,69.5,795.4,0,718.4,0z"/>
<path class="st0" d="M569.4,112.6H144.2c-77,0-65.5,69.5-144.2,69.5c41.3,0,144.2,0,144.2,0h425.2c0,0,102.9,0,144.2,0
	C634.9,182.1,646.4,112.6,569.4,112.6z"/>
<path class="st0" d="M428.2,232.3h-284c-77,0-65.5,69.5-144.2,69.5c41.3,0,144.2,0,144.2,0h284c0,0,102.9,0,144.2,0
	C493.7,301.8,505.2,232.3,428.2,232.3z"/>
<path class="st0" d="M279.2,333.3h-135c-77,0-65.5,69.5-144.2,69.5c41.3,0,144.2,0,144.2,0h135c0,0,102.9,0,144.2,0
	C344.7,402.8,356.2,333.3,279.2,333.3z"/>
</svg>
