<?xml version="1.0" encoding="utf-8"?>
<!-- Generator: Adobe Illustrator 24.0.2, SVG Export Plug-In . SVG Version: 6.00 Build 0)  -->
<svg version="1.1" id="Layer_1" xmlns="http://www.w3.org/2000/svg" xmlns:xlink="http://www.w3.org/1999/xlink" x="0px" y="0px"
	 viewBox="0 0 997.8 69.5" style="enable-background:new 0 0 997.8 69.5;" xml:space="preserve">
<style type="text/css">
	.st0{fill:#FFFFFF;}
</style>
<path class="st0" d="M-237.3,810.8"/>
<path class="st0" d="M144.2,668.2L144.2,668.2c-0.1,0-0.2,0-0.3,0c-0.1,0-0.2,0-0.3,0v0C67.3,668.5,78.6,737.7,0,737.7
	c39.6,0,248.3,0,288,0C209.4,737.7,220.7,668.5,144.2,668.2z"/>
<path class="st0" d="M853.6,0H144.2C67.2,0,78.8,69.5,0,69.5c41.3,0,144.2,0,144.2,0h709.4c0,0,102.9,0,144.2,0
	C919.1,69.5,930.6,0,853.6,0z"/>
<path class="st0" d="M1003.6-105.1H144.2c-77,0-65.5,69.5-144.2,69.5c41.3,0,144.2,0,144.2,0h859.4c0,0,102.9,0,144.2,0
	C1069.1-35.6,1080.6-105.1,1003.6-105.1z"/>
<path class="st0" d="M1138.6-279.7H144.2c-77,0-65.5,69.5-144.2,69.5c41.3,0,144.2,0,144.2,0h994.4c0,0,102.9,0,144.2,0
	C1204.1-210.2,1215.6-279.7,1138.6-279.7z"/>
<path class="st0" d="M1283.8-552.2H143.5c-77,0-65.5,69.5-144.2,69.5c41.3,0,144.2,0,144.2,0h1140.4c0,0,102.9,0,144.2,0
	C1349.3-482.7,1360.8-552.2,1283.8-552.2z"/>
<path class="st0" d="M718.4,158.3H144.2c-77,0-65.5,69.5-144.2,69.5c41.3,0,144.2,0,144.2,0h574.2c0,0,102.9,0,144.2,0
	C783.9,227.8,795.4,158.3,718.4,158.3z"/>
<path class="st0" d="M569.4,270.9H144.2c-77,0-65.5,69.5-144.2,69.5c41.3,0,144.2,0,144.2,0h425.2c0,0,102.9,0,144.2,0
	C634.9,340.4,646.4,270.9,569.4,270.9z"/>
<path class="st0" d="M428.2,425.3h-284c-77,0-65.5,69.5-144.2,69.5c41.3,0,144.2,0,144.2,0h284c0,0,102.9,0,144.2,0
	C493.7,494.8,505.2,425.3,428.2,425.3z"/>
<path class="st0" d="M279.2,526.3h-135c-77,0-65.5,69.5-144.2,69.5c41.3,0,144.2,0,144.2,0h135c0,0,102.9,0,144.2,0
	C344.7,595.8,356.2,526.3,279.2,526.3z"/>
</svg>
