<?xml version="1.0" encoding="utf-8"?>
<!-- Generator: Adobe Illustrator 24.0.2, SVG Export Plug-In . SVG Version: 6.00 Build 0)  -->
<svg version="1.1" id="Layer_1" xmlns="http://www.w3.org/2000/svg" xmlns:xlink="http://www.w3.org/1999/xlink" x="0px" y="0px"
	 viewBox="0 0 713.6 69.5" style="enable-background:new 0 0 713.6 69.5;" xml:space="preserve">
<style type="text/css">
	.st0{fill:#FFFFFF;}
</style>
<path class="st0" d="M-237.3,539.9"/>
<path class="st0" d="M144.2,327.8L144.2,327.8c-0.1,0-0.2,0-0.3,0c-0.1,0-0.2,0-0.3,0v0C67.3,328.1,78.6,397.3,0,397.3
	c39.6,0,248.3,0,288,0C209.4,397.3,220.7,328.1,144.2,327.8z"/>
<path class="st0" d="M1286.2-630.8H144.2c-77,0-65.5,69.5-144.2,69.5c41.3,0,144.2,0,144.2,0h1141.9c0,0,102.9,0,144.2,0
	C1351.7-561.3,1363.2-630.8,1286.2-630.8z"/>
<path class="st0" d="M1137.2-528.3H144.2c-77,0-65.5,69.5-144.2,69.5c41.3,0,144.2,0,144.2,0h992.9c0,0,102.9,0,144.2,0
	C1202.7-458.8,1214.2-528.3,1137.2-528.3z"/>
<path class="st0" d="M1002.6-375.8H144.2c-77,0-65.5,69.5-144.2,69.5c41.3,0,144.2,0,144.2,0h858.4c0,0,102.9,0,144.2,0
	C1068.1-306.3,1079.6-375.8,1002.6-375.8z"/>
<path class="st0" d="M853.6-270.9H144.2c-77,0-65.5,69.5-144.2,69.5c41.3,0,144.2,0,144.2,0h709.4c0,0,102.9,0,144.2,0
	C919.1-201.4,930.6-270.9,853.6-270.9z"/>
<path class="st0" d="M718.4-112.6H144.2c-77,0-65.5,69.5-144.2,69.5c41.3,0,144.2,0,144.2,0h574.2c0,0,102.9,0,144.2,0
	C783.9-43.1,795.4-112.6,718.4-112.6z"/>
<path class="st0" d="M569.4,0H144.2C67.2,0,78.8,69.5,0,69.5c41.3,0,144.2,0,144.2,0h425.2c0,0,102.9,0,144.2,0
	C634.9,69.5,646.4,0,569.4,0z"/>
<path class="st0" d="M428.2,119.7h-284c-77,0-65.5,69.5-144.2,69.5c41.3,0,144.2,0,144.2,0h284c0,0,102.9,0,144.2,0
	C493.7,189.2,505.2,119.7,428.2,119.7z"/>
<path class="st0" d="M279.2,220.7h-135c-77,0-65.5,69.5-144.2,69.5c41.3,0,144.2,0,144.2,0h135c0,0,102.9,0,144.2,0
	C344.7,290.2,356.2,220.7,279.2,220.7z"/>
</svg>
