<?xml version="1.0" encoding="utf-8"?>
<!-- Generator: Adobe Illustrator 24.0.2, SVG Export Plug-In . SVG Version: 6.00 Build 0)  -->
<svg version="1.1" id="Layer_5" xmlns="http://www.w3.org/2000/svg" xmlns:xlink="http://www.w3.org/1999/xlink" x="0px" y="0px"
	 viewBox="0 0 500 700" style="enable-background:new 0 0 500 700;" xml:space="preserve">
<style type="text/css">
	.st0{opacity:3.000000e-02;}
</style>
<g class="st0">
	<circle cx="32.3" cy="605.2" r="13.2"/>
	<circle cx="32.3" cy="643.1" r="13.2"/>
	<circle cx="32.3" cy="681" r="13.2"/>
</g>
<g class="st0">
	<path d="M13.2,586.2c0-7.3-5.9-13.2-13.2-13.2v26.4C7.3,599.4,13.2,593.5,13.2,586.2z"/>
	<path d="M13.2,624.1c0-7.3-5.9-13.2-13.2-13.2v26.4C7.3,637.3,13.2,631.4,13.2,624.1z"/>
	<path d="M13.2,662.1c0-7.3-5.9-13.2-13.2-13.2v26.4C7.3,675.3,13.2,669.4,13.2,662.1z"/>
	<path d="M13.2,700c0-7.3-5.9-13.2-13.2-13.2V700H13.2z"/>
	<ellipse transform="matrix(0.7302 -0.6832 0.6832 0.7302 -408.9866 212.4043)" cx="64.5" cy="624.1" rx="13.2" ry="13.2"/>
	<ellipse transform="matrix(0.9919 -0.1273 0.1273 0.9919 -83.7356 13.5942)" cx="64.5" cy="662.1" rx="13.2" ry="13.2"/>
	<path d="M64.5,686.8c-7.3,0-13.2,5.9-13.2,13.2h26.4C77.7,692.7,71.8,686.8,64.5,686.8z"/>
</g>
<g class="st0">
	<path d="M134.8,468.2l-2-2V450h2V468.2z M139.5,472.8l-2-2v-16.1h2V472.8z M144.1,477.4l-2-2v-16.1h2V477.4z M148.7,482l-2-2v-16.1
		h2V482z M153.3,486.6l-2-2v-16.1h2V486.6z M157.9,491.3l-2-2v-16h2V491.3z M162.5,495.9l-2-2v-16h2V495.9z"/>
</g>
<g class="st0">
	<polygon points="33.1,480.4 24,471.4 0,471.4 0,503 33.1,503 	"/>
	<path d="M102.8,521.4v-25.6l-44.2-44.2H39.7l-5.9,5.9H0v11.8h24.9l10.2,10.2v7.6h34.3v2H35.1v13.7L87.9,556v-16.2l2,2v16h-0.2
		l2.8,2.8v-16.2l2,2v16h-0.2l2.8,2.8V549l2,2v16.1h-0.2l2.8,2.8v-16.3l2,2v16.1h-0.2l2.8,2.8v-16.3l2,2v16.1h-0.2l2.8,2.8v-16.3l2,2
		V581h-0.2l2.8,2.9v-16.4l2,2v16.2h-0.2l4.6,4.6v-22.2l12.4,12.4v22.2v2.9v19.9l-12.4-12.4v-19.9L33.7,505H0v19.1h22.4l77.2,77.2v23
		l46.6,46.6h29.6v-76.5L102.8,521.4z M51.6,469.9c-3.3,0-6-2.7-6-6s2.7-6,6-6s6,2.7,6,6S54.9,469.9,51.6,469.9z M89.8,524.1
		c-3.3,0-6-2.7-6-6s2.7-6,6-6s6,2.7,6,6C95.9,521.4,93.2,524.1,89.8,524.1z M27,516c-1.6,0-2.9-1.3-2.9-2.9c0-1.6,1.3-2.9,2.9-2.9
		s2.9,1.3,2.9,2.9C29.9,514.7,28.6,516,27,516z M105.8,625.1c-1.6,0-2.9-1.3-2.9-2.9s1.3-2.9,2.9-2.9s2.9,1.3,2.9,2.9
		S107.3,625.1,105.8,625.1z M105.8,618.1c-1.6,0-2.9-1.3-2.9-2.9s1.3-2.9,2.9-2.9s2.9,1.3,2.9,2.9S107.3,618.1,105.8,618.1z
		 M105.8,611.1c-1.6,0-2.9-1.3-2.9-2.9s1.3-2.9,2.9-2.9s2.9,1.3,2.9,2.9S107.3,611.1,105.8,611.1z M140,631.3v-19.9v-2.8v-22.3
		l12.4,12.4V621v2.9v19.8L140,631.3z M150.7,666.1c-2.5,0-4.5-2-4.5-4.5s2-4.5,4.5-4.5s4.5,2,4.5,4.5S153.1,666.1,150.7,666.1z
		 M167,616.8c-2.5,0-4.5-2-4.5-4.5s2-4.5,4.5-4.5s4.5,2,4.5,4.5S169.5,616.8,167,616.8z"/>
</g>
<polygon class="st0" points="230.5,351.3 214.5,351.3 206.4,365.2 214.5,379.1 230.5,379.1 238.6,365.2 "/>
<polygon class="st0" points="203.5,366.4 187.4,366.4 179.4,380.3 187.4,394.3 203.5,394.3 211.5,380.3 "/>
<polygon class="st0" points="230.5,382 214.5,382 206.4,395.9 214.5,409.8 230.5,409.8 238.6,395.9 "/>
<g class="st0">
	<path d="M200.2,492.8c2,0,3.5-1.6,3.5-3.5s-1.6-3.5-3.5-3.5s-3.5,1.6-3.5,3.5S198.2,492.8,200.2,492.8z"/>
	<path d="M230.4,539.8c0.6,0,1.1-0.5,1.1-1.1s-0.5-1-1.1-1s-1.1,0.5-1.1,1S229.8,539.8,230.4,539.8z"/>
	<path d="M112.3,476.4c-0.6,0-1.1,0.5-1.1,1s0.5,1.1,1.1,1.1s1.1-0.5,1.1-1.1S112.9,476.4,112.3,476.4z"/>
	<path d="M195.4,555.2c2,0,3.5-1.6,3.5-3.5c0-2-1.6-3.5-3.5-3.5s-3.5,1.6-3.5,3.5C191.9,553.6,193.5,555.2,195.4,555.2z"/>
</g>
<g class="st0">
	<circle cx="467.7" cy="94.8" r="13.2"/>
	<circle cx="467.7" cy="56.9" r="13.2"/>
	<circle cx="467.7" cy="19" r="13.2"/>
</g>
<g class="st0">
	<path d="M486.8,113.8c0,7.3,5.9,13.2,13.2,13.2v-26.4C492.7,100.6,486.8,106.5,486.8,113.8z"/>
	<path d="M486.8,75.9c0,7.3,5.9,13.2,13.2,13.2V62.7C492.7,62.7,486.8,68.6,486.8,75.9z"/>
	<path d="M486.8,37.9c0,7.3,5.9,13.2,13.2,13.2V24.7C492.7,24.7,486.8,30.6,486.8,37.9z"/>
	<path d="M486.8,0c0,7.3,5.9,13.2,13.2,13.2V0H486.8z"/>
	<ellipse transform="matrix(0.7071 -0.7071 0.7071 0.7071 73.8954 330.1841)" cx="435.5" cy="75.9" rx="13.2" ry="13.2"/>
	<ellipse transform="matrix(0.9871 -0.1602 0.1602 0.9871 -0.4459 70.2553)" cx="435.5" cy="37.9" rx="13.2" ry="13.2"/>
	<path d="M435.5,13.2c7.3,0,13.2-5.9,13.2-13.2h-26.4C422.3,7.3,428.2,13.2,435.5,13.2z"/>
</g>
<g class="st0">
	<path d="M365.2,231.8l2,2V250h-2V231.8z M360.5,227.2l2,2v16.1h-2V227.2z M355.9,222.6l2,2v16.1h-2V222.6z M351.3,218l2,2v16.1h-2
		V218z M346.7,213.4l2,2v16.1h-2V213.4z M342.1,208.7l2,2v16h-2V208.7z M337.5,204.1l2,2v16h-2V204.1z"/>
</g>
<g class="st0">
	<polygon points="466.9,219.6 476,228.6 500,228.6 500,197 466.9,197 	"/>
	<path d="M397.2,178.6v25.6l44.2,44.2h18.9l5.9-5.9H500v-11.8h-24.9l-10.2-10.2v-7.6h-34.3v-2h34.3v-13.7L412.1,144v16.2l-2-2v-16
		h0.2l-2.8-2.8v16.2l-2-2v-16h0.2l-2.8-2.8V151l-2-2v-16.1h0.2l-2.8-2.8v16.3l-2-2v-16.1h0.2l-2.8-2.8v16.3l-2-2v-16.1h0.2l-2.8-2.8
		v16.3l-2-2V119h0.2l-2.8-2.9v16.4l-2-2v-16.2h0.2l-4.6-4.6v22.2l-12.4-12.4V97.3v-2.9V74.5l12.4,12.4v19.9l88.2,88.2H500v-19.1
		h-22.4l-77.2-77.2v-23l-46.6-46.6h-29.6v76.5L397.2,178.6z M448.4,230.1c3.3,0,6,2.7,6,6s-2.7,6-6,6s-6-2.7-6-6
		S445.1,230.1,448.4,230.1z M410.2,175.9c3.3,0,6,2.7,6,6s-2.7,6-6,6s-6-2.7-6-6C404.1,178.6,406.8,175.9,410.2,175.9z M473,184
		c1.6,0,2.9,1.3,2.9,2.9s-1.3,2.9-2.9,2.9s-2.9-1.3-2.9-2.9S471.4,184,473,184z M394.2,74.9c1.6,0,2.9,1.3,2.9,2.9s-1.3,2.9-2.9,2.9
		s-2.9-1.3-2.9-2.9S392.7,74.9,394.2,74.9z M394.2,81.9c1.6,0,2.9,1.3,2.9,2.9s-1.3,2.9-2.9,2.9s-2.9-1.3-2.9-2.9
		S392.7,81.9,394.2,81.9z M394.2,88.9c1.6,0,2.9,1.3,2.9,2.9s-1.3,2.9-2.9,2.9s-2.9-1.3-2.9-2.9S392.7,88.9,394.2,88.9z M360,68.7
		v19.9v2.8v22.3l-12.4-12.4V79.1v-2.9V56.4L360,68.7z M349.3,33.9c2.5,0,4.5,2,4.5,4.5s-2,4.5-4.5,4.5s-4.5-2-4.5-4.5
		S346.9,33.9,349.3,33.9z M333,83.2c2.5,0,4.5,2,4.5,4.5s-2,4.5-4.5,4.5s-4.5-2-4.5-4.5S330.5,83.2,333,83.2z"/>
</g>
<polygon class="st0" points="269.5,348.7 285.5,348.7 293.6,334.8 285.5,320.9 269.5,320.9 261.4,334.8 "/>
<polygon class="st0" points="296.5,333.6 312.6,333.6 320.6,319.7 312.6,305.7 296.5,305.7 288.5,319.7 "/>
<polygon class="st0" points="269.5,318 285.5,318 293.6,304.1 285.5,290.2 269.5,290.2 261.4,304.1 "/>
<path class="st0" d="M286.1,265.4h4.7l6.4-6.4v-31.9l-20.4-20.4H250v34.4h11.8L286.1,265.4z M288.5,253.2c2,0,3.6,1.6,3.6,3.6
	c0,2-1.6,3.6-3.6,3.6s-3.6-1.6-3.6-3.6S286.5,253.2,288.5,253.2z"/>
<g class="st0">
	<path d="M299.8,207.2c-2,0-3.5,1.6-3.5,3.5s1.6,3.5,3.5,3.5s3.5-1.6,3.5-3.5S301.8,207.2,299.8,207.2z"/>
	<path d="M269.6,160.2c-0.6,0-1.1,0.5-1.1,1.1s0.5,1,1.1,1s1.1-0.5,1.1-1S270.2,160.2,269.6,160.2z"/>
	<path d="M387.7,223.6c0.6,0,1.1-0.5,1.1-1s-0.5-1.1-1.1-1.1s-1.1,0.5-1.1,1.1S387.1,223.6,387.7,223.6z"/>
	<path d="M304.6,144.8c-2,0-3.5,1.6-3.5,3.5c0,2,1.6,3.5,3.5,3.5s3.5-1.6,3.5-3.5C308.1,146.4,306.5,144.8,304.6,144.8z"/>
</g>
<g class="st0">
	<circle cx="467.7" cy="605.2" r="13.2"/>
	<circle cx="467.7" cy="643.1" r="13.2"/>
	<circle cx="467.7" cy="681" r="13.2"/>
</g>
<g class="st0">
	<path d="M486.8,586.2c0-7.3,5.9-13.2,13.2-13.2v26.4C492.7,599.4,486.8,593.5,486.8,586.2z"/>
	<path d="M486.8,624.1c0-7.3,5.9-13.2,13.2-13.2v26.4C492.7,637.3,486.8,631.4,486.8,624.1z"/>
	<path d="M486.8,662.1c0-7.3,5.9-13.2,13.2-13.2v26.4C492.7,675.3,486.8,669.4,486.8,662.1z"/>
	<path d="M486.8,700c0-7.3,5.9-13.2,13.2-13.2V700H486.8z"/>
	<ellipse cx="435.5" cy="624.1" rx="13.2" ry="13.2"/>
	<ellipse cx="435.6" cy="662.1" rx="13.2" ry="13.2"/>
	<path d="M435.5,686.8c7.3,0,13.2,5.9,13.2,13.2h-26.4C422.3,692.7,428.2,686.8,435.5,686.8z"/>
</g>
<g class="st0">
	<path d="M365.2,450h2v16.2l-2,2V450z M360.5,454.7h2v16.1l-2,2V454.7z M355.9,459.3h2v16.1l-2,2V459.3z M351.3,463.9h2V480l-2,2
		V463.9z M346.7,468.6h2v16.1l-2,2V468.6z M342.1,473.2h2v16l-2,2V473.2z M337.5,477.9h2v16l-2,2V477.9z"/>
</g>
<g class="st0">
	<polygon points="466.9,480.4 476,471.4 500,471.4 500,503 466.9,503 	"/>
	<path d="M324.2,594.5V671h29.6l46.6-46.6v-23l77.2-77.2H500V505h-33.7l-88.2,88.2v19.9l-12.4,12.4v-19.9v-2.9v-22.2l12.4-12.4v22.2
		l4.6-4.6h-0.2v-16.2l2-2v16.4l2.8-2.9h-0.2v-16.1l2-2v16.3l2.8-2.8h-0.2v-16.1l2-2v16.3l2.8-2.8h-0.2v-16.1l2-2V570l2.8-2.8h-0.2
		V551l2-2v16.2l2.8-2.8h-0.2v-16l2-2v16.2l2.8-2.8h-0.2v-16l2-2V556l52.8-53.2v-13.7h-34.3v-2h34.3v-7.6l10.2-10.2H500v-11.8h-33.8
		l-5.9-5.9h-18.9l-44.2,44.2v25.6L324.2,594.5z M442.4,463.8c0-3.3,2.7-6,6-6s6,2.7,6,6s-2.7,6-6,6
		C445.1,469.9,442.4,467.2,442.4,463.8z M404.1,518.1c0-3.3,2.7-6,6-6s6,2.7,6,6s-2.7,6-6,6C406.8,524.1,404.1,521.4,404.1,518.1z
		 M470.1,513.1c0-1.6,1.3-2.9,2.9-2.9s2.9,1.3,2.9,2.9c0,1.6-1.3,2.9-2.9,2.9S470.1,514.7,470.1,513.1z M391.4,622.3
		c0-1.6,1.3-2.9,2.9-2.9s2.9,1.3,2.9,2.9s-1.3,2.9-2.9,2.9S391.4,623.8,391.4,622.3z M391.4,615.3c0-1.6,1.3-2.9,2.9-2.9
		s2.9,1.3,2.9,2.9s-1.3,2.9-2.9,2.9S391.4,616.8,391.4,615.3z M391.4,608.3c0-1.6,1.3-2.9,2.9-2.9s2.9,1.3,2.9,2.9s-1.3,2.9-2.9,2.9
		S391.4,609.8,391.4,608.3z M347.6,643.6v-19.8v-2.9v-22.3l12.4-12.4v22.3v2.8v19.9L347.6,643.6z M344.8,661.6c0-2.5,2-4.5,4.5-4.5
		s4.5,2,4.5,4.5s-2,4.5-4.5,4.5S344.8,664.1,344.8,661.6z M328.5,612.3c0-2.5,2-4.5,4.5-4.5s4.5,2,4.5,4.5s-2,4.5-4.5,4.5
		S328.5,614.8,328.5,612.3z"/>
</g>
<polygon class="st0" points="269.5,351.3 285.5,351.3 293.6,365.2 285.5,379.1 269.5,379.1 261.4,365.2 "/>
<polygon class="st0" points="296.5,366.4 312.6,366.4 320.6,380.3 312.6,394.3 296.5,394.3 288.5,380.3 "/>
<polygon class="st0" points="269.5,382 285.5,382 293.6,395.9 285.5,409.8 269.5,409.8 261.4,395.9 "/>
<polygon class="st0" points="258,366.8 250,366.8 242,366.8 233.9,380.7 242,394.6 250,394.6 258,394.6 266.1,380.7 "/>
<polygon class="st0" points="258,398.2 250,398.2 242,398.2 233.9,412.1 242,426 250,426 258,426 266.1,412.1 "/>
<polygon class="st0" points="312.6,336.1 296.5,336.1 288.5,350 296.5,363.9 312.6,363.9 320.6,350 "/>
<path class="st0" d="M290.8,434.6h-4.7l-24.3,24.3H250h-11.8l-24.3-24.3h-4.7l-6.4,6.4v31.9l20.4,20.4H250h26.8l20.4-20.4V441
	L290.8,434.6z M211.5,446.8c-2,0-3.6-1.6-3.6-3.6s1.6-3.6,3.6-3.6s3.6,1.6,3.6,3.6S213.5,446.8,211.5,446.8z M288.5,447
	c-2,0-3.6-1.7-3.6-3.6c0-2,1.6-3.6,3.6-3.6s3.6,1.6,3.6,3.6S290.5,447,288.5,447z"/>
<g class="st0">
	<path d="M299.8,492.8c-2,0-3.5-1.6-3.5-3.5s1.6-3.5,3.5-3.5s3.5,1.6,3.5,3.5S301.8,492.8,299.8,492.8z"/>
	<path d="M269.6,539.8c-0.6,0-1.1-0.5-1.1-1.1s0.5-1,1.1-1s1.1,0.5,1.1,1S270.2,539.8,269.6,539.8z"/>
	<path d="M387.7,476.4c0.6,0,1.1,0.5,1.1,1s-0.5,1.1-1.1,1.1s-1.1-0.5-1.1-1.1S387.1,476.4,387.7,476.4z"/>
	<path d="M304.6,555.2c-2,0-3.5-1.6-3.5-3.5c0-2,1.6-3.5,3.5-3.5s3.5,1.6,3.5,3.5C308.1,553.6,306.5,555.2,304.6,555.2z"/>
</g>
<g class="st0">
	<circle cx="32.3" cy="94.8" r="13.2"/>
	<circle cx="32.3" cy="56.9" r="13.2"/>
	<circle cx="32.3" cy="19" r="13.2"/>
</g>
<g class="st0">
	<path d="M13.2,113.8c0,7.3-5.9,13.2-13.2,13.2v-26.4C7.3,100.6,13.2,106.5,13.2,113.8z"/>
	<path d="M13.2,75.9c0,7.3-5.9,13.2-13.2,13.2V62.7C7.3,62.7,13.2,68.6,13.2,75.9z"/>
	<path d="M13.2,37.9c0,7.3-5.9,13.2-13.2,13.2V24.7C7.3,24.7,13.2,30.6,13.2,37.9z"/>
	<path d="M13.2,0c0,7.3-5.9,13.2-13.2,13.2V0H13.2z"/>
	<ellipse cx="64.5" cy="75.9" rx="13.2" ry="13.2"/>
	<ellipse cx="64.5" cy="37.9" rx="13.2" ry="13.2"/>
	<path d="M64.5,13.2c-7.3,0-13.2-5.9-13.2-13.2h26.4C77.7,7.3,71.8,13.2,64.5,13.2z"/>
</g>
<g class="st0">
	<path d="M134.8,250h-2v-16.2l2-2V250z M139.5,245.3h-2v-16.1l2-2V245.3z M144.1,240.7h-2v-16.1l2-2V240.7z M148.7,236.1h-2V220l2-2
		V236.1z M153.3,231.4h-2v-16.1l2-2V231.4z M157.9,226.8h-2v-16l2-2V226.8z M162.5,222.1h-2v-16l2-2V222.1z"/>
</g>
<g class="st0">
	<polygon points="33.1,219.6 24,228.6 0,228.6 0,197 33.1,197 	"/>
	<path d="M175.8,105.5V29.1h-29.6L99.5,75.7v23l-77.2,77.2H0V195h33.7l88.2-88.2v-20l12.4-12.4v19.9v2.9v22.2l-12.4,12.4v-22.2
		l-4.6,4.6h0.2v16.2l-2,2V116l-2.8,2.9h0.2V135l-2,2v-16.3l-2.8,2.8h0.2v16.1l-2,2v-16.3l-2.8,2.8h0.2v16.1l-2,2v-16.3l-2.8,2.8h0.2
		V149l-2,2v-16.2l-2.8,2.8h0.2v16l-2,2v-16.2l-2.8,2.8h0.2v16l-2,2V144l-52.8,53.2v13.7h34.3v2H35.1v7.6l-10.2,10.2H0v11.8h33.8
		l5.9,5.9h18.9l44.2-44.2v-25.6L175.8,105.5z M57.6,236.2c0,3.3-2.7,6-6,6s-6-2.7-6-6s2.7-6,6-6C54.9,230.1,57.6,232.8,57.6,236.2z
		 M95.9,181.9c0,3.3-2.7,6-6,6s-6-2.7-6-6s2.7-6,6-6C93.2,175.9,95.9,178.6,95.9,181.9z M29.9,186.9c0,1.6-1.3,2.9-2.9,2.9
		s-2.9-1.3-2.9-2.9s1.3-2.9,2.9-2.9S29.9,185.3,29.9,186.9z M108.6,77.7c0,1.6-1.3,2.9-2.9,2.9s-2.9-1.3-2.9-2.9s1.3-2.9,2.9-2.9
		S108.6,76.2,108.6,77.7z M108.6,84.7c0,1.6-1.3,2.9-2.9,2.9s-2.9-1.3-2.9-2.9s1.3-2.9,2.9-2.9S108.6,83.2,108.6,84.7z M108.6,91.7
		c0,1.6-1.3,2.9-2.9,2.9s-2.9-1.3-2.9-2.9s1.3-2.9,2.9-2.9S108.6,90.2,108.6,91.7z M152.4,56.4v19.8v2.9v22.3L140,113.8V91.5v-2.8
		v-20L152.4,56.4z M155.2,38.4c0,2.5-2,4.5-4.5,4.5s-4.5-2-4.5-4.5s2-4.5,4.5-4.5S155.2,35.9,155.2,38.4z M171.5,87.7
		c0,2.5-2,4.5-4.5,4.5s-4.5-2-4.5-4.5s2-4.5,4.5-4.5S171.5,85.2,171.5,87.7z"/>
</g>
<polygon class="st0" points="230.5,348.7 214.5,348.7 206.4,334.8 214.5,320.9 230.5,320.9 238.6,334.8 "/>
<polygon class="st0" points="203.5,333.6 187.4,333.6 179.4,319.7 187.4,305.7 203.5,305.7 211.5,319.7 "/>
<polygon class="st0" points="230.5,318 214.5,318 206.4,304.1 214.5,290.2 230.5,290.2 238.6,304.1 "/>
<polygon class="st0" points="258,305.4 250,305.4 242,305.4 233.9,319.3 242,333.2 250,333.2 258,333.2 266.1,319.3 "/>
<polygon class="st0" points="258,274 250,274 242,274 233.9,287.9 242,301.8 250,301.8 258,301.8 266.1,287.9 "/>
<polygon class="st0" points="258,336.1 250,336.1 242,336.1 233.9,350 242,363.9 250,363.9 258,363.9 266.1,350 "/>
<polygon class="st0" points="203.5,336.1 187.4,336.1 179.4,350 187.4,363.9 203.5,363.9 211.5,350 "/>
<path class="st0" d="M238.2,241.2H250v-34.4h-26.8l-20.4,20.4v31.9l6.4,6.4h4.7L238.2,241.2z M215.1,256.7c0,2-1.6,3.6-3.6,3.6
	s-3.6-1.6-3.6-3.6s1.6-3.6,3.6-3.6S215.1,254.8,215.1,256.7z"/>
<g class="st0">
	<path d="M200.2,207.2c2,0,3.5,1.6,3.5,3.5s-1.6,3.5-3.5,3.5s-3.5-1.6-3.5-3.5S198.2,207.2,200.2,207.2z"/>
	<path d="M230.4,160.2c0.6,0,1.1,0.5,1.1,1.1s-0.5,1-1.1,1s-1.1-0.5-1.1-1S229.8,160.2,230.4,160.2z"/>
	<path d="M112.3,223.6c-0.6,0-1.1-0.5-1.1-1s0.5-1.1,1.1-1.1s1.1,0.5,1.1,1.1S112.9,223.6,112.3,223.6z"/>
	<path d="M195.4,144.8c2,0,3.5,1.6,3.5,3.5c0,2-1.6,3.5-3.5,3.5s-3.5-1.6-3.5-3.5C191.9,146.4,193.5,144.8,195.4,144.8z"/>
</g>
<path class="st0" d="M385,646.9L356.9,675h-48.8V565.7l86.8-86.8v-7.5h-22.7l-28.4,28.4l-19.1,0L308,483.1v-41.5l-11.8-11.8h-19.3
	L260,446.7h-10h-10l-16.9-16.9h-19.3L192,441.6v41.5l-16.7,16.7h-19.1l-28.4-28.4h-22.7v7.5l86.8,86.8V675h-48.8L115,646.9l-17,17
	V700h98.8h16.1V567.2l21.6-21.6H250h15.5l21.6,21.6V700h16.1H402v-36.1L385,646.9z M387.7,473.8c2,0,3.6,1.6,3.6,3.6
	s-1.6,3.6-3.6,3.6s-3.6-1.6-3.6-3.6S385.7,473.8,387.7,473.8z M175.1,512.1h44.5l-22.2,22.3L175.1,512.1z M194,536h-15.3l-22.3-22.3
	l4.1-4.1h7.2L194,536z M221.9,514.9h56.2l21.1,21.1h-6.3l-15.3-15.2H250h-27.6L207.1,536h-6.3L221.9,514.9z M280.4,512.1h44.5
	l-22.3,22.3L280.4,512.1z M332.3,509.6h7.2l4.1,4.1L321.3,536H306L332.3,509.6z M239.7,505.8l2-2h8.3h8.3l2,2H250H239.7z
	 M305.8,489.3c0,3.3-2.7,6-6,6c-3.3,0-6-2.7-6-6c0-3.4,2.7-6.1,6-6C303.1,483.3,305.8,486,305.8,489.3z M200.9,440l7.5-7.4h6.4
	l24.2,24.2h11h11l24.2-24.2h6.4l7.5,7.4v33.5L277.6,495H250h-27.6l-21.5-21.5V440z M200.2,483.3c3.3-0.1,6,2.6,6,6c0,3.3-2.7,6-6,6
	s-6-2.7-6-6S196.9,483.3,200.2,483.3z M112.3,481c-2,0-3.6-1.6-3.6-3.6s1.6-3.6,3.6-3.6s3.6,1.6,3.6,3.6S114.3,481,112.3,481z
	 M195.4,557.6c-3.3,0-6-2.7-6-6s2.7-6,6-6s6,2.7,6,6S198.7,557.6,195.4,557.6z M230.4,542.4c-2,0-3.6-1.6-3.6-3.6s1.6-3.6,3.6-3.6
	s3.6,1.6,3.6,3.6S232.4,542.4,230.4,542.4z M269.6,542.4c-2,0-3.6-1.6-3.6-3.6s1.6-3.6,3.6-3.6s3.6,1.6,3.6,3.6
	S271.6,542.4,269.6,542.4z M277,526.1h-27h-27l-15.1,15.1h-32.4L145.2,511l3.6-3.6L120,478.6l1.4-1.4l28.8,28.8l2-2h21.2l2,2H153
	l-5.1,5.1l28.3,28.3h30.7l15.1-15.1h28h28l15.1,15.1h30.7l28.3-28.3L347,506h-22.4l2-2h21.2l2,2l28.8-28.8l1.4,1.4l-28.8,28.8
	l3.6,3.6l-30.3,30.2h-32.4L277,526.1z M298.6,551.6c0-3.3,2.7-6,6-6s6,2.7,6,6s-2.7,6-6,6C301.3,557.6,298.6,554.9,298.6,551.6z"/>
<path class="st0" d="M402,36.1V0h-98.8h-16.1v132.8l-21.6,21.6H250h-15.5l-21.6-21.6V0h-16.1H98v36.1l17,17L143.1,25h48.8v109.3
	l-86.8,86.8v7.5h22.7l28.4-28.4h19.1l16.7,16.7v41.5l11.8,11.8h19.3l16.9-16.9h10h10l16.9,16.9h19.3l11.8-11.8v-41.5l16.7-16.7
	l19.1,0l28.4,28.4h22.7v-7.5l-86.8-86.8V25h48.8L385,53.1L402,36.1z M384.1,222.6c0-2,1.6-3.6,3.6-3.6s3.6,1.6,3.6,3.6
	s-1.6,3.6-3.6,3.6S384.1,224.6,384.1,222.6z M197.4,165.6l22.2,22.3h-44.5L197.4,165.6z M167.7,190.4h-7.2l-4.1-4.1l22.3-22.3H194
	L167.7,190.4z M200.8,164h6.3l15.3,15.2H250h27.6l15.3-15.2h6.3l-21.1,21.1h-56.2L200.8,164z M302.6,165.6l22.3,22.3h-44.5
	L302.6,165.6z M306,164h15.3l22.3,22.3l-4.1,4.1h-7.2L306,164z M250,194.2h10.3l-2,2H250h-8.3l-2-2H250z M299.8,216.7
	c-3.3,0.1-6-2.6-6-6c0-3.3,2.7-6,6-6c3.3,0,6,2.7,6,6S303.1,216.7,299.8,216.7z M200.9,226.5l21.5-21.5H250h27.6l21.5,21.5V260
	l-7.5,7.4h-6.4L261,243.2h-11h-11l-24.2,24.2h-6.4l-7.5-7.4V226.5z M194.2,210.7c0-3.3,2.7-6,6-6s6,2.7,6,6c0,3.4-2.7,6.1-6,6
	C196.9,216.7,194.2,214,194.2,210.7z M115.9,222.6c0,2-1.6,3.6-3.6,3.6s-3.6-1.6-3.6-3.6s1.6-3.6,3.6-3.6S115.9,220.6,115.9,222.6z
	 M201.4,148.4c0,3.3-2.7,6-6,6s-6-2.7-6-6s2.7-6,6-6C198.7,142.4,201.4,145.1,201.4,148.4z M234,161.2c0,2-1.6,3.6-3.6,3.6
	s-3.6-1.6-3.6-3.6s1.6-3.6,3.6-3.6S234,159.2,234,161.2z M273.2,161.2c0,2-1.6,3.6-3.6,3.6s-3.6-1.6-3.6-3.6s1.6-3.6,3.6-3.6
	S273.2,159.2,273.2,161.2z M292.1,158.8h32.4l30.3,30.2l-3.6,3.6l28.8,28.8l-1.4,1.4L349.8,194l-2,2h-21.2l-2-2H347l5.1-5.1
	l-28.3-28.3h-30.7L278,175.7h-28h-28l-15.1-15.1h-30.7l-28.3,28.3l5.1,5.1h22.4l-2,2h-21.2l-2-2l-28.8,28.8l-1.4-1.4l28.8-28.8
	l-3.6-3.6l30.3-30.2h32.4l15.1,15.1h27h27L292.1,158.8z M304.6,142.4c3.3,0,6,2.7,6,6s-2.7,6-6,6s-6-2.7-6-6
	S301.3,142.4,304.6,142.4z"/>
<path class="st0" d="M473,343.2h27v-11.9h-27l-14.8-14.8v-31.1L408.8,236h-18.6v24.5h-18.3l-43.8-43.8L317,227.8v38l75.1,75.2h-11.9
	l-66.9-66.9l-7.8,7.8l38.5,38.5V350v29.6l-38.5,38.5l7.8,7.8l66.9-66.9h11.9L317,434.2v38l11.1,11.1l43.8-43.8h18.3V464h18.6
	l49.4-49.4v-31.1l14.8-14.8h27v-11.9h-27V350V343.2z M351.4,379.2c-2,0-3.6-1.7-3.6-3.6c0-2,1.6-3.6,3.6-3.6s3.6,1.6,3.6,3.6
	S353.4,379.2,351.4,379.2z M351.4,328c-2,0-3.6-1.6-3.6-3.6c0-1.9,1.6-3.6,3.6-3.6s3.6,1.6,3.6,3.6S353.4,328,351.4,328z
	 M448.7,296.1c3.3,0,6,2.7,6,6s-2.7,6-6,6s-6-2.7-6-6C442.7,298.7,445.4,296,448.7,296.1z M435.5,270.7l2,2v16.2h-2V270.7z
	 M430.9,266.2l2,2v16.1h-2V266.2z M426.3,261.5l2,2v16.1h-2V261.5z M421.7,256.9l2,2V275h-2V256.9z M417.1,252.3l2,2v16.1h-2V252.3z
	 M412.4,247.7l2,2v16h-2V247.7z M407.8,243.1l2,2v16h-2V243.1z M328.3,222.5c2,0,3.6,1.6,3.6,3.6s-1.6,3.6-3.6,3.6s-3.6-1.6-3.6-3.6
	C324.7,224.2,326.3,222.5,328.3,222.5z M324.7,264.4l-2-2v-16.2h2V264.4z M329.3,269l-2-2v-16.1h2V269z M333.9,273.6l-2-2v-16.1h2
	V273.6z M338.5,278.2l-2-2v-16.1h2V278.2z M343.1,282.9l-2-2v-16.1h2V282.9z M347.7,287.4l-2-2v-16h2V287.4z M352.3,292l-2-2v-16h2
	V292z M350.3,410l2-2v18h-2V410z M345.7,414.6l2-2v18h-2V414.6z M341.1,419.1l2-2v18.1h-2V419.1z M336.5,423.8l2-2v18.1h-2V423.8z
	 M331.9,428.4l2-2v18.1h-2V428.4z M327.3,433l2-2v18.1h-2V433z M322.7,437.6l2-2v18.2h-2V437.6z M328.3,477.5c-2,0-3.6-1.7-3.6-3.6
	c0-2,1.6-3.6,3.6-3.6s3.6,1.6,3.6,3.6S330.3,477.5,328.3,477.5z M409.8,454.9l-2,2v-18h2V454.9z M414.4,450.3l-2,2v-18h2V450.3z
	 M419.1,445.7l-2,2v-18.1h2V445.7z M423.7,441.1l-2,2V425h2V441.1z M428.3,436.5l-2,2v-18.1h2V436.5z M432.9,431.8l-2,2v-18.1h2
	V431.8z M437.5,427.3l-2,2v-18.2h2V427.3z M448.7,403.9c-3.3,0.1-6-2.6-6-6c0-3.3,2.7-6,6-6s6,2.7,6,6S452,403.9,448.7,403.9z
	 M463.5,350v15.4L400.8,428h-34.2L325,469.6l-1.4-1.4l41.6-41.6v-28l39.6-39.6h2.7l-40.4,40.4V426h32.8l61.5-61.5V350v-14.5
	L399.9,274h-32.8v26.6l40.4,40.4h-2.7l-39.6-39.6v-28l-41.6-41.6l1.4-1.4l41.6,41.6h34.2l62.7,62.6V350z M376.7,299.9l13-13H402
	l43.1,43.1v20v20L402,413.1h-12.3l-13-13l33.5-33.5V350v-16.6L376.7,299.9z M373.3,283.4c-2,0-3.6-1.6-3.6-3.6s1.6-3.6,3.6-3.6
	s3.6,1.6,3.6,3.6S375.3,283.4,373.3,283.4z M376.9,420.2c0,2-1.6,3.6-3.6,3.6s-3.6-1.6-3.6-3.6s1.6-3.6,3.6-3.6
	S376.9,418.2,376.9,420.2z M454.5,359c2,0,3.6,1.6,3.6,3.6s-1.6,3.6-3.6,3.6s-3.6-1.6-3.6-3.6S452.5,359,454.5,359z M450.9,337.4
	c0-2,1.6-3.6,3.6-3.6s3.6,1.6,3.6,3.6s-1.6,3.6-3.6,3.6S450.9,339.4,450.9,337.4z"/>
<path class="st0" d="M27,356.8H0v11.9h27l14.8,14.8v31.1L91.2,464h18.6v-24.5h18.3l43.8,43.8l11.1-11.1v-38L107.9,359h11.9
	l66.9,66.9l7.8-7.8L156,379.6V350v-29.6l38.5-38.5l-7.8-7.8L119.8,341h-11.9l75.1-75.2v-38l-11.1-11.1l-43.8,43.8h-18.3V236H91.2
	l-49.4,49.4v31.1L27,331.3H0v11.9h27v6.8V356.8z M148.6,320.8c2,0,3.6,1.7,3.6,3.6c0,2-1.6,3.6-3.6,3.6s-3.6-1.6-3.6-3.6
	S146.6,320.8,148.6,320.8z M148.6,372c2,0,3.6,1.6,3.6,3.6c0,1.9-1.6,3.6-3.6,3.6s-3.6-1.6-3.6-3.6S146.6,372,148.6,372z
	 M51.3,403.9c-3.3,0-6-2.7-6-6s2.7-6,6-6s6,2.7,6,6C57.3,401.3,54.6,404,51.3,403.9z M64.5,429.3l-2-2v-16.2h2V429.3z M69.1,433.8
	l-2-2v-16.1h2V433.8z M73.7,438.5l-2-2v-16.1h2V438.5z M78.3,443.1l-2-2V425h2V443.1z M82.9,447.7l-2-2v-16.1h2V447.7z M87.6,452.3
	l-2-2v-16h2V452.3z M92.2,456.9l-2-2v-16h2V456.9z M171.7,477.5c-2,0-3.6-1.6-3.6-3.6s1.6-3.6,3.6-3.6s3.6,1.6,3.6,3.6
	C175.3,475.8,173.7,477.5,171.7,477.5z M175.3,435.6l2,2v16.2h-2V435.6z M170.7,431l2,2v16.1h-2V431z M166.1,426.4l2,2v16.1h-2
	V426.4z M161.5,421.8l2,2v16.1h-2V421.8z M156.9,417.1l2,2v16.1h-2V417.1z M152.3,412.6l2,2v16h-2V412.6z M147.7,408l2,2v16h-2V408z
	 M149.7,290l-2,2v-18h2V290z M154.3,285.4l-2,2v-18h2V285.4z M158.9,280.9l-2,2v-18.1h2V280.9z M163.5,276.2l-2,2v-18.1h2V276.2z
	 M168.1,271.6l-2,2v-18.1h2V271.6z M172.7,267l-2,2v-18.1h2V267z M177.3,262.4l-2,2v-18.2h2V262.4z M171.7,222.5
	c2,0,3.6,1.7,3.6,3.6c0,2-1.6,3.6-3.6,3.6s-3.6-1.6-3.6-3.6S169.7,222.5,171.7,222.5z M90.2,245.1l2-2v18h-2V245.1z M85.6,249.7l2-2
	v18h-2V249.7z M80.9,254.3l2-2v18.1h-2V254.3z M76.3,258.9l2-2V275h-2V258.9z M71.7,263.5l2-2v18.1h-2V263.5z M67.1,268.2l2-2v18.1
	h-2V268.2z M62.5,272.7l2-2v18.2h-2V272.7z M51.3,296.1c3.3-0.1,6,2.6,6,6c0,3.3-2.7,6-6,6s-6-2.7-6-6S48,296.1,51.3,296.1z
	 M36.5,350v-15.4L99.2,272h34.2l41.6-41.6l1.4,1.4l-41.6,41.6v28L95.2,341h-2.7l40.4-40.4V274h-32.8l-61.5,61.5V350v14.5l61.5,61.5
	h32.8v-26.6L92.5,359h2.7l39.6,39.6v28l41.6,41.6l-1.4,1.4L133.4,428H99.2l-62.7-62.6V350z M123.3,400.1l-13,13H98L54.9,370v-20v-20
	L98,286.9h12.3l13,13l-33.5,33.5V350v16.6L123.3,400.1z M126.7,416.6c2,0,3.6,1.6,3.6,3.6s-1.6,3.6-3.6,3.6s-3.6-1.6-3.6-3.6
	S124.7,416.6,126.7,416.6z M123.1,279.8c0-2,1.6-3.6,3.6-3.6s3.6,1.6,3.6,3.6s-1.6,3.6-3.6,3.6S123.1,281.8,123.1,279.8z M45.5,341
	c-2,0-3.6-1.6-3.6-3.6s1.6-3.6,3.6-3.6s3.6,1.6,3.6,3.6S47.5,341,45.5,341z M49.1,362.6c0,2-1.6,3.6-3.6,3.6s-3.6-1.6-3.6-3.6
	s1.6-3.6,3.6-3.6S49.1,360.6,49.1,362.6z"/>
</svg>
